<svg xmlns="http://www.w3.org/2000/svg" viewBox="0 0 383 224"><defs><style>.cls-1{fill:#151516;}</style></defs><g id="Layer_7" data-name="Layer 7"><path class="cls-1" d="M21.37,58.34c-.58,19.77-1.59,39.51-3.35,59.21-1.77,19.88-4,39.72-5.94,59.58q-1.9,19.23-3.82,38.44c-.06.62,1.55.79,1.76.81a11.07,11.07,0,0,0,3.62-.44c1.47-.42,4.29-1.17,4.48-3,2.3-22.75,4.47-45.52,6.82-68.27,1.81-17.58,3.59-35.16,4.69-52.81.76-12,1.25-24.09,1.6-36.15.05-1.75-9.77-.41-9.86,2.64Z"/><path class="cls-1" d="M10,81.91c7.75-11.82,18.74-21.17,30.6-28.11,1.59-.94,3.2-1.83,4.83-2.69l.49-.26c.57-.3-.53.27,0,0l1.16-.58q1.32-.66,2.67-1.29c1.68-.79,3.38-1.53,5.1-2.24l1.2-.5-.28.11.69-.27,2.78-1c1.75-.63,3.5-1.22,5.27-1.78l.29-.09,1.24-.36c1-.28,1.9-.54,2.85-.79l2.49-.64,1.25-.29c.7-.17-1,.21-.25,0l.89-.19c1.78-.39,3.56-.73,5.36-1a13.29,13.29,0,0,1,2.5-.4s-.86.12-.33,0l.71-.1c.48-.07,1-.13,1.43-.18,1.76-.22,3.53-.4,5.31-.53.88-.07,1.75-.12,2.63-.17-.77,0,.27,0,.52,0l1.4,0c1.74,0,3.48,0,5.22,0a7.54,7.54,0,0,1,5,1.61,8,8,0,0,1,2.38,4.24c.94,3.92-.7,7.66-2.91,10.83-4.91,7-12,12.6-18.86,17.58C76.23,78.2,68.48,83.26,60.78,88.35q-24.16,16-49,30.87L5.55,123c-.3.18-1.34.8-1.19,1.36s1.36.59,1.71.6A14.32,14.32,0,0,0,13,123q26.15-15.53,51.59-32.2c8.37-5.5,16.72-11,24.93-16.78,7.51-5.27,14.77-10.94,20.67-18,2.71-3.25,5.21-7,5.39-11.41.15-3.44-1.5-7.26-4.75-8.78-2.25-1.06-4.81-1.13-7.25-1.18-1.79,0-3.58,0-5.36,0-4,.13-7.9.42-11.82.93a144.68,144.68,0,0,0-47.84,15c-13.49,7-26,16.51-35.22,28.68-1.07,1.42-2.1,2.87-3.07,4.36s3.55.85,3.9.78c1.77-.35,4.71-.93,5.8-2.59Z"/><path class="cls-1" d="M100.25,123c-21.62-2.37-42.75,8.36-58.81,22a109.67,109.67,0,0,0-19.27,21.26c-2.74,3.94-5.68,8.12-7.26,12.69a14,14,0,0,0-.73,7.32c.55,2.44,2.58,3.63,4.92,3.94,6.08.81,11.8-2.44,16.46-6,1.52-1.15,3.1-2.19,4.58-3.39,3.33-2.73,6.54-5.61,9.74-8.49q13.65-12.28,26.87-25c3.6-3.47,7.19-7,10.65-10.56,1.08-1.13,2.16-2.26,3.17-3.46,2.33-2.8,4.29-5.82,7-8.27,1.59-1.42,3.29-3,3.07-5.33-.07-.64-1.41-.83-1.78-.86a10.52,10.52,0,0,0-3,.28c-1.73.38-4.12,1.05-5.07,2.7A131.78,131.78,0,0,0,77.49,155a130,130,0,0,0-3.12,17.18,37.25,37.25,0,0,0-.57,6.74,3.84,3.84,0,0,0,2.7,3.17c4.52,1.79,10.31.16,13.75-3.08a47.23,47.23,0,0,0,5.92-7.65c5.86-8.44,11.57-16.95,18.46-24.6,3-3.3,5.65-6.82,8.53-10.22a68.34,68.34,0,0,1,5.7-6.09,16.1,16.1,0,0,1,2-1.63A35.82,35.82,0,0,1,134,126.7c-.64.39-.09,0,0,0l1-.53c.51-.26,1-.49,1.54-.74.69-.34-1.06.4.1,0l.72-.29c.3-.11.61-.21.91-.33s.24-.08-.37.11l.74-.22.76-.2c1.23-.33-.79.13,0,0,.58-.1,1.16-.21,1.74-.29-1.11.14.81,0,1.12,0,.82,0,.29,0,.11,0q.69,0,1.38.09a18.47,18.47,0,0,1,7.78,2.77,17.34,17.34,0,0,1,5.48,4.74c-.12-.16.3.48.38.61s.29.49.42.75a13.9,13.9,0,0,1,.92,2.26,15.15,15.15,0,0,1,.56,4.92c-.22,4.62-2.39,9.43-4.92,13.22a25.64,25.64,0,0,1-4.59,5.11c.36-.31-.08.06-.13.1-.27.22-.54.43-.82.63s-.84.6-1.27.88l-.72.45c.71-.45.21-.12.05,0-.59.31-1.19.61-1.79.91-.79.38.15,0,.22-.1a2.89,2.89,0,0,1-.77.31l-.77.28c-.85.32.26-.12.36-.1a5.59,5.59,0,0,0-1.57.43c-1.08.29.95-.14.22-.05-.37.05-.74.14-1.11.2a2.51,2.51,0,0,1-.63.09c.47.22.84-.07.11,0-.47,0-.94.07-1.42.08,0,0-1.07,0-.41,0h-.4c-.57,0-1.14-.08-1.71-.14-.19,0-1.45-.25-.81-.11l-.57-.12a12.52,12.52,0,0,1-1.35-.44c-.26-.09-.51-.19-.76-.3s-1-.48-.37-.15c-.59-.29-1.17-.59-1.73-.93-5.91-3.47-10-9.23-10.18-16.24a21.85,21.85,0,0,1,.95-6.52c.52-1.82-3.15-1.39-4-1.23a12.63,12.63,0,0,0-3.75,1.19c-.67.36-1.76.87-2,1.66a21.93,21.93,0,0,0-.06,13.15,21.17,21.17,0,0,0,6,8.74,25.51,25.51,0,0,0,7.56,4.57,24.76,24.76,0,0,0,11,1.14c11-1,21.72-6.35,27.56-16,4.19-6.92,6.68-16.07,1.3-23-3.66-4.71-10.42-7.57-16.16-8.08-11.89-1-24.11,4.85-32.19,13.31-3.44,3.6-6.33,7.61-9.55,11.39-3.65,4.28-7.41,8.4-10.79,12.91-3.16,4.2-6.13,8.54-9.1,12.88a74,74,0,0,1-6.1,8.28c-.36.4-.76.75-1.13,1.14s.74-.52,0-.05c-.51.33,1-.57.52-.3a14.74,14.74,0,0,0,2-.71c.83-.22,1.66-.19,2.48-.36s-.35,0-.5,0c-.75-.06-.27-.06-.12,0a4.06,4.06,0,0,1-.79-.26c.4.2-.34-.3-.46-.42s-.21-.3,0,0a3,3,0,0,1-.24-.51c-.53-1.56,0-3.62.17-5.19q.45-4.46,1.22-8.87a131,131,0,0,1,11.23-34.85q2-4,4.2-7.92l-9.81,2.13c.17,1.76-2.06,3-3.15,4.08a45.19,45.19,0,0,0-4.61,5.45c-.92,1.22-1.84,2.39-2.87,3.51-2.76,3-5.68,5.88-8.6,8.73-8.29,8.13-16.76,16.06-25.32,23.9-3.56,3.25-7.13,6.49-10.77,9.67l-2,1.72-.87.73c-.56.48.49-.4.18-.15l-.41.34c-1.28,1-2.65,1.94-4,2.93-.92.69-1.83,1.39-2.77,2-.42.29-.83.57-1.26.83.48-.29-.14.06-.2.09-.95.55,1-.32-.1.05a8,8,0,0,1,1.3-.34c-.26,0-.88.08.22,0,0,0,.71,0,.25,0s.38.13-.07,0a2.52,2.52,0,0,1-1.56-1.55c-1.63-4.17,1.11-9.2,3.16-12.7a105,105,0,0,1,16.43-21.12,101.14,101.14,0,0,1,9.63-8.5c1.76-1.36,3.56-2.67,5.4-3.91,1-.65,1.92-1.29,2.9-1.9,1.22-.76,1.68-1,2.66-1.59,2-1.15,4.13-2.22,6.26-3.19.11,0,1-.42.44-.2l.44-.19c.47-.19.94-.39,1.42-.57,1.22-.49,2.46-.91,3.69-1.34-1,.33.23-.07.58-.18.56-.16,1.11-.32,1.67-.46s1.12-.29,1.69-.42l.63-.15c-1.21.27.22,0,.37-.06,1.06-.2,2.13-.34,3.19-.51.74-.11-.68.06.06,0l.86-.08c.65,0,1.29-.1,1.94-.13s1.15,0,1.72,0c.07,0,.79,0,.23,0l.86,0c1.16,0,2.31.13,3.46.26a10.92,10.92,0,0,0,7-1.87c.47-.33,1.3-.94,1.11-1.62s-1.25-.8-1.77-.86Z"/><path class="cls-1" d="M185.5,33.82c0,12.73-.33,25.47-1.2,38.17a364.32,364.32,0,0,1-4.78,38.27c-2.63,14.88-5.68,29.67-8.47,44.52-1.33,7.11-2.44,14.24-3.46,21.4-.3,2.08,2.9,2,4.18,1.84a11.68,11.68,0,0,0,8.62-5.63,47.6,47.6,0,0,0,3-6.57c.29-.72-.4-1.34-1-1.59a6.3,6.3,0,0,0-3.22-.25c-2,.31-4.81,1.13-5.64,3.2-.61,1.51-1.2,3-1.92,4.5a13.21,13.21,0,0,1-1.13,1.86c-.11.15-.24.29-.34.45-.28.4-.1,0,.11-.08,0,0-.89.55-.1.15a8.3,8.3,0,0,1,3-1.08l4.18,1.84c1.72-12,4-23.9,6.31-35.8,4.23-21.28,8.39-42.64,10.1-64.29,1.14-14.48,1.54-29,1.54-43.55,0-.73-1.43-1.12-1.87-1.2a8.55,8.55,0,0,0-3.66.28c-1.7.49-4.33,1.45-4.33,3.56Z"/><path class="cls-1" d="M243.62,100c-25.68,6.67-48,24.61-58.86,49a86.54,86.54,0,0,0-6,19.11c-.29,1.51-.53,3-.73,4.55s-.54,3.31.65,4.54c1.84,1.91,5.25,1.23,7.47.49a31.74,31.74,0,0,0,6.13-2.8c6.06-3.58,11.25-9,16-14.12s9.23-10.88,13.64-16.49c5.13-6.53,10.27-13.06,15.17-19.77,2.5-3.42,4.94-6.88,7.29-10.41,2.18-3.29,4.63-6.78,5-10.81l-9.88,1.14c-.91,11.16-1.45,22.46-.06,33.6.83,6.57,2.33,13.24,5.55,19.09,2.94,5.35,7.31,9.83,13.43,11.18a18.47,18.47,0,0,0,10.75-.84c5.16-2,9-6.26,12-10.74,1.3-1.92-1.11-3.1-2.73-3.13-2.27-.05-5.15.75-6.49,2.75a25.32,25.32,0,0,1-4.13,5,4.22,4.22,0,0,1-1,.86c.67-.28.44-.32.15-.13s-.31.23-.48.33-.65.36-.94.57c1-.72.75-.35.41-.24a3.76,3.76,0,0,0-.68.29s1.35-.39.62-.22a3,3,0,0,0-.43.12c-.76.26,1.43-.17.26-.06-.6.06-1.08-.17.22,0-.28,0-.62,0-.9,0-.91,0,1,.23.14,0l-.67-.14-.16,0c-.53-.11-1-.27-1.55-.41.17.05,1.06.43.29.1l-.69-.3c-.5-.24-1-.51-1.47-.8l-.74-.5c-.55-.36.11-.15.18.15,0-.09-.37-.29-.44-.35a17.41,17.41,0,0,1-1.67-1.54,24.69,24.69,0,0,1-3.5-4.69c-.36-.61.05.12-.13-.23l-.4-.75c-.3-.6-.58-1.21-.85-1.83a40.86,40.86,0,0,1-1.47-3.86,62.88,62.88,0,0,1-2.33-10.12c-1.72-11.35-1.15-22.88-.22-34.27.18-2.21-2.66-2.55-4.31-2.32a8.65,8.65,0,0,0-3.73,1.28c-.72.49-1.75,1.23-1.84,2.18-.29,2.84-1.68,5.14-3.2,7.48-1.74,2.68-3.55,5.32-5.39,7.94-3.6,5.09-7.36,10.07-11.18,15-7.37,9.52-14.51,19.17-22.88,27.68a92.73,92.73,0,0,1-7.22,6.66c-.32.27-.65.53-1,.78.58-.44-.35.25-.46.33-.62.44-1.26.86-1.91,1.26l-.9.52c.74-.41-.07,0-.38.16l-.76.32c-.55.21-.51.21.12,0-.58.16-.53.17.14,0l2.36.1c1.38.29,1,1.38.88.26.07.5.09-.66.08-.57.1-.83.21-1.66.34-2.49.25-1.65.55-3.3.9-4.94a83.5,83.5,0,0,1,2.63-9.47,80.48,80.48,0,0,1,8.51-17.47,74.59,74.59,0,0,1,12-14.46c1.09-1,2.19-2,3.33-3,.62-.53,1.25-1,1.88-1.54l.64-.51c.4-.31.42-.33.07-.06l.65-.48a83.47,83.47,0,0,1,8.13-5.32c.71-.41,1.42-.8,2.13-1.19,1.19-.64-.88.44.33-.17l1.45-.72c1.57-.77,3.18-1.49,4.8-2.16.87-.36,1.75-.7,2.64-1,.38-.15.76-.28,1.14-.42,1-.38-.91.29.25-.08,1.8-.58,3.6-1.13,5.44-1.61,1.53-.39,4.78-1.85,4.22-4s-4.18-1.7-5.64-1.32Z"/><path class="cls-1" d="M280.16,12.28c-.61,21.38-1.2,42.77-.68,64.16a499.57,499.57,0,0,0,5.72,63.33c.9,5.88,1.86,11.75,2.82,17.61.45,2.68.55,5.76,2.17,8.05,2.23,3.15,7.24,2.85,10.33,1.39,1.26-.59,4.11-2.33,2.61-4s-4.94-.9-6.54-.14l3.33-.41.24.09s-.48-.33-.23-.1a3.46,3.46,0,0,1-.65-.78,10,10,0,0,1-.83-3.28q-.63-3.78-1.25-7.58-1.23-7.46-2.37-14.92c-1.5-10-2.82-19.94-3.73-30a585.46,585.46,0,0,1-1.87-60.41c.15-11.4.47-22.8.79-34.2.07-2.17-2.59-2.44-4.27-2.2A9.11,9.11,0,0,0,282,10.16c-.67.44-1.84,1.22-1.86,2.12Z"/><path class="cls-1" d="M207.14,51.49a75.93,75.93,0,0,0,9.54-.08c4.48-.22,8.95-.58,13.42-1,12.38-1.1,24.73-2.51,37.06-4q21.19-2.61,42.33-5.72c12.9-1.89,25.78-3.93,38.6-6.29,7.66-1.41,15.59-2.66,23-5.23.87-.3,1.74-.6,2.58-1,1.68-.74,3.84-2.93,2.4-4.81s-4.78-1.4-6.66-.59l-.6.25c-1.1.45,1.46-.49.42-.15q-.88.3-1.77.57c-1.51.45-3,.84-4.57,1.21-4.26,1-8.56,1.89-12.87,2.72l-3.9.73-1.93.35-.87.16-.55.09c-.56.11,1.49-.26.45-.08q-4.37.78-8.75,1.5c-6.48,1.08-13,2.09-19.47,3.07q-20.9,3.14-41.88,5.77c-12.65,1.59-25.31,3.07-38,4.28-4.77.45-9.55.86-14.33,1.17-1.86.12-3.72.22-5.58.28-.74,0-1.49.05-2.23.06-.53,0-2-.05.14,0h-.92c-.51,0-1,0-1.52-.07-2.29-.17-5.33.72-6.43,2.94s.93,3.71,2.92,3.85Z"/><path class="cls-1" d="M316,159.35c2.13,0,5.18-1.65,5.44-4,.28-2.58-2.64-3.21-4.55-3.21-2.14,0-5.18,1.64-5.44,4-.28,2.57,2.64,3.21,4.55,3.21Z"/></g></svg>