<svg xmlns="http://www.w3.org/2000/svg" viewBox="0 0 317.16 145.66"><defs><style>.cls-1{fill:#151515;}.cls-2{fill:#a62023;}.cls-3{fill:#f3e3e3;}.cls-4{fill:#f4e5e5;}.cls-5{fill:#f8f0ef;}.cls-6{fill:#f6e9ea;}.cls-7{fill:#efd7d8;}.cls-8{fill:#f4e5e6;}.cls-9{fill:#a62024;}.cls-10{fill:#edd3d3;}.cls-11{fill:#e1b2b3;}.cls-12{fill:#f0dbdb;}.cls-13{fill:#f7ecec;}.cls-14{fill:#efd8d8;}.cls-15{fill:#f5e9e9;}.cls-16{fill:#f5e8e8;}.cls-17{fill:#edd0d0;}.cls-18{fill:#b95c4f;}.cls-19{fill:#deacad;}.cls-20{fill:#efd5d5;}.cls-21{fill:#deafae;}.cls-22{fill:#dca8a9;}.cls-23{fill:#f2dfdf;}.cls-24{fill:#ab302d;}.cls-25{fill:#a72325;}.cls-26{fill:#e0b3b3;}.cls-27{fill:#ab302e;}.cls-28{fill:#e0b2b2;}.cls-29{fill:#dca5a8;}.cls-30{fill:#ab2f2f;}.cls-31{fill:#a92a2a;}.cls-32{fill:#e0b4b4;}.cls-33{fill:#a62125;}.cls-34{fill:#a82727;}.cls-35{fill:#efd9da;}.cls-36{fill:#e6c1c1;}.cls-37{fill:#efd9d9;}.cls-38{fill:#f0dada;}.cls-39{fill:#e2b6b7;}.cls-40{fill:#aa2d2c;}.cls-41{fill:#e1b4b5;}.cls-42{fill:#e4bbbc;}.cls-43{fill:#f0dede;}.cls-44{fill:#f1dede;}.cls-45{fill:#ac3230;}.cls-46{fill:#ab312d;}.cls-47{fill:#a62124;}.cls-48{fill:#e4bdbd;}.cls-49{fill:#deadae;}.cls-50{fill:#a82628;}.cls-51{fill:#ab2e2d;}.cls-52{fill:#ac3030;}.cls-53{fill:#f2e1e1;}.cls-54{fill:#f3e5e4;}.cls-55{fill:#f7eded;}.cls-56{fill:#eacbcb;}.cls-57{fill:#ecd0d0;}.cls-58{fill:#f0dedd;}.cls-59{fill:#dba6a7;}.cls-60{fill:#eacaca;}.cls-61{fill:#e3baba;}.cls-62{fill:#d18e8f;}.cls-63{fill:#f3dfe0;}.cls-64{fill:#ecd3d2;}.cls-65{fill:#edd2d2;}.cls-66{fill:#f4e3e4;}.cls-67{fill:#e1b4b4;}.cls-68{fill:#eac9c9;}.cls-69{fill:#eed3d3;}.cls-70{fill:#eacdcc;}.cls-71{fill:#e1b3b4;}.cls-72{fill:#f3e2e2;}.cls-73{fill:#e9c8c8;}.cls-74{fill:#e9caca;}.cls-75{fill:#e9c8c9;}.cls-76{fill:#e7c2c3;}.cls-77{fill:#d39496;}.cls-78{fill:#eed5d5;}.cls-79{fill:#d79a9c;}.cls-80{fill:#f0dddd;}.cls-81{fill:#edd5d4;}.cls-82{fill:#e8c7c7;}.cls-83{fill:#f5e7e7;}.cls-84{fill:#e1b5b6;}.cls-85{fill:#e7c4c5;}.cls-86{fill:#f1dddd;}.cls-87{fill:#eed5d6;}.cls-88{fill:#edd3d2;}.cls-89{fill:#e7c3c3;}.cls-90{fill:#e6c1c2;}.cls-91{fill:#f4e6e6;}.cls-92{fill:#e0b1b1;}.cls-93{fill:#ddaaab;}.cls-94{fill:#e5bdbd;}.cls-95{fill:#c77576;}</style></defs><g id="Layer_2" data-name="Layer 2"><g id="Layer_1-2" data-name="Layer 1"><path class="cls-1" d="M15.19,50v7c2.26-3.68,5.58-7.71,11.16-7.71h.24c6.88,0,10.08,5.81,10.08,13.64v38.1c0,8.55-5,14.13-10.68,14.13h-.24c-4.74,0-8.07-3.09-10.56-6.89v27.89H0V50Zm0,48.42c0,2.85,1.31,4.27,3,4.27,2.25,0,3-1.66,3-4.15V66.16c0-2.49-.72-4-3-4s-3,1.67-3,4Z"/><path class="cls-1" d="M47,89.54c0-6.41,2.14-10.21,6.65-13.05C56.5,74.71,64,71.38,66,70.19c.59-.35,1-.71,1-2.37V64.38c0-2.73-1-3.44-2.61-3.44h-.48c-2,0-2.61,1.18-2.61,3.44v6.29H47.71V61.89c0-5.58,2.73-12.58,15-12.58H65.4c12.7,0,16.14,5.81,16.14,14V98.56c0,1.31.35,1.78,2.25,1.78h1.66v13.53H71.33c-3,0-4.39-2-4.39-7.24-1.66,3.09-5.22,7.83-10.8,7.83h-.47c-5.82,0-8.67-5.46-8.67-11Zm19.94-7.12a15.29,15.29,0,0,0-3.92,3c-1.06,1.3-1.42,2.37-1.42,4.86V98c0,2.37.59,3.79,2.49,3.79s2.85-1.42,2.85-3.79Z"/><path class="cls-1" d="M93.65,66.75c0-11.51,6.29-17.92,16.61-17.92h3.56c10.45,0,16.74,6.41,16.74,17.69V96.78c0,10.44-6.29,18.28-16.74,18.28h-3.56c-11.63,0-16.61-7.84-16.61-18Zm15.31,30c0,2.49.59,4.51,3.08,4.51s3.21-2.14,3.21-4.51V66.4c0-2.61-.71-4.39-3.21-4.39S109,63.79,109,66.4Z"/><path class="cls-1" d="M156.31,113.87H141.12V25.57h15.19Z"/><path class="cls-1" d="M166.76,89.54c0-6.41,2.14-10.21,6.65-13.05,2.84-1.78,10.32-5.11,12.34-6.3.59-.35.95-.71.95-2.37V64.38c0-2.73-.95-3.44-2.61-3.44h-.48c-2,0-2.61,1.18-2.61,3.44v6.29H167.47V61.89c0-5.58,2.73-12.58,15-12.58h2.73c12.69,0,16.14,5.81,16.14,14V98.56c0,1.31.35,1.78,2.25,1.78h1.66v13.53H191.09c-3,0-4.39-2-4.39-7.24-1.66,3.09-5.22,7.83-10.8,7.83h-.48c-5.81,0-8.66-5.46-8.66-11Zm19.94-7.12a15.29,15.29,0,0,0-3.92,3c-1.07,1.3-1.42,2.37-1.42,4.86V98c0,2.37.59,3.79,2.49,3.79s2.85-1.42,2.85-3.79Z"/><path class="cls-1" d="M233.61,113.87c-4.15,0-7.24-3.32-7.24-7.83V64.14h-7.24V50h7.24V28.89h15.08V50h7.35V64.14h-7.35V96.9c0,1.78.23,2.61,2.25,2.61h5.1v14.36Z"/><g id="_9yf0vJ.tif" data-name="9yf0vJ.tif"><path class="cls-2" d="M317.16,71c-1.33,1.4-1.1,3.25-1.33,4.94-.15,1.1-.16,2.14-1,3-.72.7-.17,1.78-.56,2.61-.8,1.69-.42,3.81-2,5.26a2.25,2.25,0,0,0-.33,2.15c.25,1.23,0,1.46-1.27,1.63-.46.07-.3.38-.21.58a2.14,2.14,0,0,1,0,1.63c-.44,1.54-.69,3.14-1.27,4.62a4.84,4.84,0,0,1-1.59,2.47,2.86,2.86,0,0,0-1.33,2.36c0,.66-.17,1.22-1.07.88-.32-.12-.5.06-.5.4a1.46,1.46,0,0,1-.39,1,2.88,2.88,0,0,0-.79,2.91c.23,1.08-1.1,1.71-1.28,2.76-1.27-.14-1.09.87-1.36,1.61-.34,1-.5-.36-.89-.07a2.53,2.53,0,0,1-.84,2.89,1.11,1.11,0,0,0-.36.81.73.73,0,0,1-.57.76c-1,.08-1.38.74-1.91,1.48a14.93,14.93,0,0,1-4.25,4.09c-1.06.67-2,1.65-3.38,1.58a.36.36,0,0,0-.26.19c-.7,1.71-2.38,2.43-3.66,3.49a12.77,12.77,0,0,1-3.89,2.07,52.57,52.57,0,0,0-4.91,2.49,49.58,49.58,0,0,1-7.55,3.36c-2.39.67-4.6,2-7.18,2.08a7.5,7.5,0,0,0-1.86.48c-.64.19-1.26.49-1.92,0-.39-.28-.79.13-1.19.16a53.92,53.92,0,0,0-7.37,1.21,48,48,0,0,0-5.12,1,15.25,15.25,0,0,1-2,.14,5,5,0,0,0-2.07.36c-.48.27-1.1-.11-1.61-.44s-.88-.79-1.2.11a.33.33,0,0,1-.47.17c-1-.4-1.64.21-2.34.7a.36.36,0,0,1-.39.09c-.93-.31-1.82-.91-2.88-.4-.18.09-.51-.07-.75-.18-.42-.19-.77-.79-1.2.1-.11.21-1.16.19-1.45.06-1.16-.53-2.9-.09-3.24-2-.76,1-1.13,1-2.25,0,.09.82.18,1.55.24,2.28a1.52,1.52,0,0,0,1.65,1.56,3.68,3.68,0,0,1,2.9.85.63.63,0,0,0,.6.21c2.14-.43,4.3.05,6.44-.14a1.82,1.82,0,0,1,1.36.48,1.74,1.74,0,0,0,2.08.21c.14-.07.27-.19.41-.18.46,0,1.16-.29,1.29.32s-.5.74-1.06.85a22,22,0,0,1-5.31.12c-1.77-.1-3.41.66-5.15.5s-3.57-.24-5.15-1.26c-.39-.26-.81-.55-1.28,0-.25.31-.65,0-.94-.11a33.91,33.91,0,0,0-6.13-2,1.89,1.89,0,0,1-1.29-.78c-.28-.42-.87-.34-1.34-.41a10.1,10.1,0,0,1-6-3.13c-1-1-2.52-1.4-3.32-2.59-.63-.94-1.71-.54-2.46-1.12s-1.52-1.18-2.32-1.71a11.68,11.68,0,0,1-3.1-3.31,11.12,11.12,0,0,0-1.57-1.78,7.79,7.79,0,0,1-2.64-4,5,5,0,0,0-.68-1.26,4.1,4.1,0,0,1,2.8,1.7,1.59,1.59,0,0,0,1.42.75c.48,0,.87.37,1.21.73s.66.91,1.3.4c.08-.07.28,0,.42,0-.06,1.36,1.92,1,1.93,2.33,0,.09,0,.19.14.24a10.5,10.5,0,0,1,3.43,2,3.74,3.74,0,0,0,2.48,1.38c.64,0,.72.86,1.25,1.12s.53.95,1.12,1.11c1,.51,2.13.77,2.85,1.72.34-.11.26-.47.28-.79a9.22,9.22,0,0,0,1.87,1.55,1.24,1.24,0,0,0,.88.1,2,2,0,0,1,1.85.59c.76.85,1.27.59,1.81-.16.28-.46.53-.22.82,0a3,3,0,0,0,1.83.86c-.79-.64-1.71-.66-2.17-1.33-1.56-.92-2.6-2.61-4.53-3-.16,0-.43-.21-.42-.3.09-.91-1-1.18-.95-2-.44,0-.17.91-.82.57a1.74,1.74,0,0,1-1.06-1.32c0-.28.15-.34.44-.22,1.26.49,1.48.34,1.59-1,.08-.14.47,0,.35-.22s-.51-.11-.78,0a1,1,0,0,1-1.09-.12,1.75,1.75,0,0,1-.21-.5c1,.21.62-1.3,1.52-1.18.17-.1,0,.46.27.13.09-.11.11-.26.2-.38a2.76,2.76,0,0,1,3.21,2,1.5,1.5,0,0,0,1,1,20,20,0,0,1,3.15,1.2c.21.12.66.22.74.12,1-1.21,1.62.06,2.34.34.49.2.81.24,1.18-.11.4-.17.78.31,1.19.06.23-.65.64-.44,1-.19a.86.86,0,0,0,1.12-.19c.3-.29,0-.79-.21-.88-1.38-.76-.46-2-.81-3,.41.6.38,1.67,1.62,1.12.82-.37.84-.32.43-1.51.56.62.88.44,1.55.24,1.52-.48,2.9-1.91,4.74-1.1a1.32,1.32,0,0,0,1.08-.2,3.11,3.11,0,0,1,2.58-.24,1.07,1.07,0,0,0,1.22-.4,4.24,4.24,0,0,1,3.1-1.38c2.73-.28,5.47-.39,8.19-.74,1.69-.21,3.34-.75,5-1.1a65.88,65.88,0,0,0,14.5-5,15.7,15.7,0,0,0,5.67-4c1.51-1.84,3.24-3.44,4.84-5.18,1.87-2,2.95-4.62,5-6.54,1.49-1.39,1.74-3.48,2.1-5.41a23.11,23.11,0,0,1,2-5,1.41,1.41,0,0,0,.06-1.38,3.42,3.42,0,0,1-.16-2.76,17.91,17.91,0,0,0,.67-9.84,9.13,9.13,0,0,1-.16-4.26,2.2,2.2,0,0,0,0-1,14.26,14.26,0,0,1,0-5.33c.27-1.86.46-3.88-1.1-5.52-1.1-1.16-1.28-2.83-1.93-4.24a6.55,6.55,0,0,0-1.7-2.37c-.73-.63-1-1.91-1.24-2.95a4.21,4.21,0,0,0-1-1.83,20.72,20.72,0,0,1-3-4.43,5.43,5.43,0,0,0-1.83-2.68c-1.28-.8-2-2.2-3.1-3.28a8.21,8.21,0,0,0-1.77-1.4A13.7,13.7,0,0,1,267.24,33c-1.7-2.77-4.34-3.86-7.21-4.73-2.13-.65-4.23-1.41-6.34-2.11-.09-.56.35-.81.66-1.12L274.43,4.91a3.15,3.15,0,0,1,1.09-.79,1.16,1.16,0,0,1,1.08.51,5.16,5.16,0,0,0,2.89,1.88,2.83,2.83,0,0,1,2.15,2.85,1.57,1.57,0,0,0,.86,1.51,1.2,1.2,0,0,1,.77,1.43,1.2,1.2,0,0,0,.69,1.21c.45.22.59-.32.86-.55a2.21,2.21,0,0,1,2.64-.17,2.36,2.36,0,0,1,.94.8c.84,1.4,2.51,1.87,3.45,3.15a1.57,1.57,0,0,0,1.54.56,3.07,3.07,0,0,1,2.56,1c1.67,1.53,2.71,3.55,4.15,5.25a.74.74,0,0,1,.21.51c-.27,1.37.63,2.4.92,3.6.58,2.36,2.53,3.63,3.78,5.44,1.59.19,1.75,1.52,2.16,2.67a3.65,3.65,0,0,0,.69,1,9.16,9.16,0,0,1,1.91,3.7,22.47,22.47,0,0,0,1.87,4.29,48.09,48.09,0,0,1,3,9.38c.28,1.27.83,2.55.22,3.89a.43.43,0,0,0,.14.51,3.8,3.8,0,0,1,1,2.92c.07,1.71.81,3.37.35,5.15-.14.55.36,1.17.79,1.64Z"/><path class="cls-2" d="M275.52,4.12c-.71.73-1.4,1.48-2.13,2.2Q264,15.76,254.53,25.2c-.3.29-.56.61-.84.92l-1.8-.44c-.45-.66-1.39-.22-1.86-.84-.91-.54-1.75-1.37-2.93-.61-.26.17-.37.05-.48-.22-.49-1.16-1.53-1.09-2.49-.94a3.24,3.24,0,0,1-1.76.07,27.17,27.17,0,0,1-3.32-.74c-.65-.29-.33.57-.62.77-.49.4-.71-.39-1.14-.24s-.65-.32-1.12,0-.42-.49-.73-.66c-.34-.46.48-.61.26-1a8.6,8.6,0,0,1-.78-1.21c-.07-.11,0-.34-.16-.3s0,.21,0,.34a3,3,0,0,1,.52,1.91.24.24,0,0,1-.06.28c-.23,0-.2.64-.64.29s-.62-.54-.42-.9c.55-1.05-.07-1-.85-1l.47,1.28c-.54.22-.37-.59-.77-.52-.66.35,1.36,1.54-.5,1.49a3.72,3.72,0,0,1-.33-1.09c-.27-1.18-.76-1.55-2.08-1.57.14.55.94.84.61,1.56a.2.2,0,0,1-.28,0l-.44,0c-.93-.18-.57.76-.93,1.08-.66.07-.24-.74-.76-.86s-.25,2.87-1.56.18c-.09,1.51-.79,1.53-1.77,1.16-.47-.18-1-.19-.78.67.08.3,0,.78-.55.67-.63-.57-.5-1.38-.68-2.09a1.64,1.64,0,0,1,.11-.87c-.25-.11-.38.15-.57.19-1.44.37-1.45.38-.95,1.82.11.32.1.67.23,1-.16.28-1.77.84-1.89.63a1.33,1.33,0,0,1,.31-1.56c.08-.63-.52-.7-.84-1s-.73-.34-1-.69c0,.45.33.79.29,1.21.1,1.2-.65,1.21-1.52,1.09.06-.34.79-.05.55-.63-.29-.37-.55-.89-1.07-.23-.09.23-.15.48-.48.45s-.42-.47-.66-.6c-.54-.27-1.06-.31-1,.56-.09.51.49.87.29,1.4h0c-1,.32-1-.51-1.33-1a4.73,4.73,0,0,1,.32,1.27c0,.35,0,.73-.57.44-.05-.65-.57-.36-.89-.46a.66.66,0,0,1-.2-.74.47.47,0,0,1,.12-.18l.16-.14c-.07-.09-.09,0-.15,0-.49.06-.5.61-.85.82-.08.19-.25.19-.42.19-.19-.36-.36-.28-.54,0-.38.44.08,1.44-1,1.45-.21,0,0,.29,0,.46,0,.4.23.8,0,1.28-.57-.63-.3-2-1.67-1.79-.56.1-.93.44-.72,1.07-.6.09-.67-.5-1.13-.51.12.74-.4,1.44,0,2.2.06.13.11.41-.24.3-.16-.05-.42.21-.44-.21s-.23-.66-.57-.51a1.15,1.15,0,0,0-.7,1c0,.42.27.54.69.49s.57.25.25.45-.24.5-.1.82c.32.71.06.76-.49.38a1.92,1.92,0,0,0-.9-.88c-.13.11-.4.27-.38.33.42,1.33.06,1.59-1.14.68.09,1.46,1.2,2.06,2,2.69.59.47,1.14-.39,1.53-1,.44.37.37.75,0,1.14s-.49.76-1,.84c-.2-.18-.4-.31-.59,0a.19.19,0,0,1,0,.31l-.39-.1c-.06.28-.24.62-.15.84.46,1.15-.85.38-.94.9s-.14,1.27-1.1.9c-.5-.19-1.67.75-1.72,1.3s.09,1.17-.47,1.05-1.61.75-2-.45a.38.38,0,0,0-.5-.3c-1,.24-1.18-.35-1.12-1.14a2.35,2.35,0,0,0-.91-2,2.11,2.11,0,0,1-.78-2.29.86.86,0,0,0,.05-.44c-.88-2.17.48-3.65,1.58-5.22A8.2,8.2,0,0,0,196.45,28c.69-1.8,2-3.32,2.59-5.16.11-.34.44-.65.18-1.12-.56.21-.69,1.64-1.58.8-.29-.27-1.55-.94-.19-1.75a7.06,7.06,0,0,0-2.27,2.17c-.32-.22-.12-.54-.32-.83-.28.62-.84.91-1.3,1.31-.27.22-.21.93-.86.58a1,1,0,0,1-.43-1.29c.46-1.45.55-3,1.1-4.44.3-.75.45-1.57.68-2.35s.48-1.18,1.34-1.11c-.4.65-.08,1.33-.21,2s-.4,1.36-.61,2.19a1.84,1.84,0,0,1,1.1-.25c.13-.6-1.07-1-.22-1.65.68-.49.72.77,1.33.48.36.15.63.36.6.81s.32.24.53.25a3.75,3.75,0,0,0,1.12-.4c.07,0,.32-.16,0-.18a1.55,1.55,0,0,1-.21,0c-.56-.7-1.41-.06-2-.45-.26-.52-.23-.86.48-.78a4.91,4.91,0,0,1,.83-.32c.56-.11.57-.12.58-.53,1,.16,1.61-.81,2.51-1,.38-.08-.06-.4-.09-.61.47-.46.53-.42.85.5s.61,1.19,1.41.58c.32-.18.67,0,1-.11s.47-.18.54-.48a1,1,0,0,1,.21-.21c.14-.06.29-.1.42-.17.31-.16.88,0,1-.4s-.6-.42-.86-.69c-.32-.47-.09-1-.11-1.5s-.33-.05-.4-.22a.63.63,0,0,1,.58-.53c.45-.07.58.28.74.57.47.91,1.6,1.29,1.85,2.49-.2-1,.8-.76,1-1.22a2.68,2.68,0,0,0-.58-1.24c-.25-.32-.27-.75-.54-1.06s-.42-.46-.28-.81a2.18,2.18,0,0,0,1-1.25.59.59,0,0,1,.32-.06c.28,0,.51.39.83.13a.2.2,0,0,0,0-.3c-.3-.32-.61-.14-.92,0s-.36.1-.54.17c-.75,0-.85-.18-.49-.75.59-.07.58-1,1.25-.91.78.29.54-.41.7-.72.25-.53.45,0,.67,0s.17.19.25.06-.06-.2,0-.31a13.09,13.09,0,0,0,3.32-2.28c.66-.76,1.82-.56,2.7-.94.54-.23,1.43-.11,1.32-1.16,0-.31.36-.2.53-.17,1.55.22,3-.63,4.51-.4,2.31.37,4.49-.62,6.77-.33a4.66,4.66,0,0,1,1.48.46,5.67,5.67,0,0,0,2.31.12c.59,0,.76.52,1.31.56-.1-.72.68-.93.87-1.51.63.14,0,.78.46,1.08a1.81,1.81,0,0,0,2.34-.46c.34-.53.65-.53.94-.21.45.49,1.53.14,1.53.89s-.93.8-1.32,1.24-1.58,1-1.07,2.08c.13.27.34.75.57.41.86-1.31,2-.54,3-.52a1.8,1.8,0,0,0,.93.42c.65,0,1-.44,1.49-.7,1-.55,1.83-1.61,3.19-1.43a6.72,6.72,0,0,0,1.66-.16c.08,0,.17-.14.19-.22.06-.23-.52-.42-.1-.63s.37.36.59.51a4,4,0,0,0,2.73.79c.85-.12.93-1.05,1.4-1.58,1-1.11,1.42-1.31,2.84-.79a5.72,5.72,0,0,1,2,.86c.1.09.34.19.39.14,1-.86,1.89.26,2.63.17,2.36-.31,4.53,1.13,7,.42a3,3,0,0,1,3.42,1,1.49,1.49,0,0,0,1.71.59A2,2,0,0,1,275.52,4.12Z"/><path class="cls-3" d="M209.5,13c.17.59.17.59-1,.49-.21.36.89.5.17.9a.65.65,0,0,1-1-.48c-.32-1.19-1.56-1.69-2-2.78a.43.43,0,0,0-.25-.42c0-.21.08-.31.24-.38a.9.9,0,0,1,.49,0c.35.15.68.25,1-.11s.41-.57.82-.39c-.09.37.16.54.41.7.08.48,0,1,.53,1.33A1.3,1.3,0,0,0,209.5,13Z"/><path class="cls-4" d="M223.15,22.52c.49.68,0,1.58.52,2.26-.6,0-.58-.63-.9-.9-.29,0-.24.25-.25.45l-.71.48c-.64-.68-.68-1.62-1.07-2.41.45.15.17-1.32,1-.45.29.32.51-.21.8-.12C223,21.78,222.82,22.4,223.15,22.52Z"/><path class="cls-5" d="M208,9.78a1.16,1.16,0,0,0-.66.59c-.35.72-.75.59-1.18.08-.26-.26-.07-.52,0-.79,0-.61.42-1,.68-1.48l1.25-.43c-.06.2-.23.46,0,.6s.39-.08.58-.13a.43.43,0,0,1,.24.41C209.32,9.6,208.52,9.59,208,9.78Z"/><path class="cls-6" d="M230.73,21.82a1.31,1.31,0,0,0-.8-1.1c-.3-.12-.51-.2-.34-.52a.56.56,0,0,1,.73-.37,12.28,12.28,0,0,1,2,.91c.17.12,0,.7.06,1.07a.21.21,0,0,1-.31,0,.62.62,0,0,0-.68,0A.42.42,0,0,1,230.73,21.82Z"/><path class="cls-7" d="M195.45,17.06a.64.64,0,0,0,.22.88A1.2,1.2,0,0,1,196,19.3c-.69-1.06-1.09-.19-1.72.3a4,4,0,0,1,.88-2.83Z"/><path class="cls-8" d="M215.69,25.46l.22.23a3.09,3.09,0,0,0,1.69.47c.15.28.34.55.14.89s-.62.21-.94.23c-.45-.36-.89.32-1.34,0V25.7Q215.36,25.37,215.69,25.46Z"/><path class="cls-5" d="M216.62,136.52c.73.1,1.25.76,2.07.73.37,0,.47.43.38.79-.16.61-.48.11-.68.06a2.68,2.68,0,0,1-1.74-1.09c-.25-.38-.34,0-.51,0C216.14,136.67,216.31,136.53,216.62,136.52Z"/><path class="cls-9" d="M211.65,28c.3-.05.35.06.41.21a3.57,3.57,0,0,0,.92,1.25.51.51,0,0,1,0,.87c-.4.31-.68.11-.85-.32s-.21-.64-.62-.74c-.22-.05-.46-.21-.34-.48S212,28.63,211.65,28Z"/><path class="cls-10" d="M213.19,26.14c.35.06.49,0,.38-.43-.22-.73-.41-1.46-.64-2.28,1,.39.48,2.06,1.84,2-.18.29-.14.69-.44.93l-.07-.07s0,0,.06.07C213.86,26.68,213.42,26.89,213.19,26.14Z"/><path class="cls-11" d="M218.66,23.43c-.58-.44-.46-1.19-.72-1.82.72.52,1.43,1.08,2.19,1.55a.66.66,0,0,1,.31.76.19.19,0,0,1-.07.06.71.71,0,0,1-.14-.1l-.94-.7a.59.59,0,0,0-.65.26Z"/><path class="cls-12" d="M205.65,13.42c.3-.05.59-.48.89-.1a1.43,1.43,0,0,1,.38.91c-.06.42-.52.29-.84.34s-.73.13-1.09.21c-.19-.11-.39-.22-.16-.47a.43.43,0,0,0,.4-.25.53.53,0,0,0,.36-.52Z"/><path class="cls-13" d="M214.35,24.1c-.06-.28-.84-.57-.19-.77.42-.12,1-.81,1.52-.08a6.42,6.42,0,0,1,.46.86l-.66.22c-.16,0-.13-.51-.46-.21C214.79,24.2,214.57,24.33,214.35,24.1Z"/><path class="cls-14" d="M205.09,11.62c.8-.31.74.37.66.7s0,.74-.1,1.1l0,0a.3.3,0,0,1-.47,0l-.41-.65a.57.57,0,0,1,0-.79Z"/><path class="cls-15" d="M201.77,15c-.3-.16-.13-.46-.21-.68-.13-.4-.32-.3-.49,0,.17-1,.85-1,1.61-.92.18.61-.26,1-.48,1.49C202.08,15,202,15.11,201.77,15Z"/><path class="cls-16" d="M214.35,24.1l.65-.22c.35.29.19.79.45,1.12l.24.46-.24.24-.68-.23C214.83,25,213.85,24.76,214.35,24.1Z"/><path class="cls-17" d="M200.64,12.28c-.39-.2-1.06.53-1.13-.1s.71-.59,1.2-.59c.24,0,1.06-.68.65.41C201.15,12.16,200.83,12.06,200.64,12.28Z"/><path class="cls-18" d="M202,14.79a2.65,2.65,0,0,1,.66-1.39l.27-.07c.46.06.54.37.49.76a.53.53,0,0,0,0,.22.4.4,0,0,1,0,.41c-.14.18-.33.1-.51.09s-.32.15-.48.25A.43.43,0,0,1,202,14.79Z"/><path class="cls-19" d="M198.65,15.93c-.07.24.53.78-.37.68-.27,0-.67.19-1,.17.2-.37.47-.71.16-1.22C197.86,15.74,198.17,16.16,198.65,15.93Z"/><path class="cls-20" d="M210,6.12c.58.58.13,1-.3,1.26-.59.29-.65-.07-.4-.54C209.31,6.38,209.7,6.29,210,6.12Z"/><path class="cls-21" d="M210.44,129c.91-.76,1-.72,1.38.51-.43.31-.62-.27-.95-.28Z"/><path class="cls-22" d="M206.6,134c-.91.16-1-.47-1.12-1.11C206.71,132.38,206.15,133.68,206.6,134Z"/><path class="cls-23" d="M229.09,23a1.76,1.76,0,0,1,0-.33c.13-.4-.52-.79-.12-1.11s.57.5,1,.36C229.77,22.29,229.6,22.78,229.09,23Z"/><path class="cls-3" d="M203.35,14.74l.11-.43h.41a2.11,2.11,0,0,1,.56.42c.25.29.17.53-.12.73-.33.53-.6-.1-.91-.05a.62.62,0,0,1-.17-.25A.48.48,0,0,1,203.35,14.74Z"/><path class="cls-24" d="M206.8,8.18c.21.63-.68,1-.44,1.59a.33.33,0,0,1-.47,0C205.46,9.09,205.49,9,206.8,8.18Z"/><path class="cls-25" d="M230.73,21.82h.64V23.2c-1-.08-.52-1-.91-1.36Z"/><path class="cls-26" d="M212.28,24.83l0,.85-.92-.2c.06-.13.2-.3.15-.4-.48-1.15.45-.42.73-.55A.19.19,0,0,1,212.28,24.83Z"/><path class="cls-27" d="M204.31,14.8a.41.41,0,0,1-.44-.48c.32-.66.64-.54,1,0l.16.47h0A.53.53,0,0,1,204.31,14.8Z"/><path class="cls-28" d="M216.62,23.66c-.08-.41,0-.74.49-.64s.78.32.58.87Z"/><path class="cls-29" d="M223.91,131.54c-.44.83-.8.13-1.19-.06C223.17,130.32,223.52,131.34,223.91,131.54Z"/><path class="cls-30" d="M217.44,26.18c-.7.45-1.14,0-1.53-.49.65-.14,1.2.28,1.82.3C217.71,26.16,217.66,26.31,217.44,26.18Z"/><path class="cls-31" d="M215.46,27.29c.44-.13.89-.73,1.34,0C216.35,27.31,215.91,28.45,215.46,27.29Z"/><path class="cls-32" d="M243.45,5.19c-.66.44-.84.36-.93-.42C243,4.53,243.43,4.4,243.45,5.19Z"/><path class="cls-33" d="M217.44,26.18l.29-.19c.16-.2.35-.44.61-.17s.13.47,0,.47c-.54,0-.19.68-.59.76Z"/><path class="cls-34" d="M203.71,34.71c0-.58-.11-1.26.74-1.57A2.1,2.1,0,0,1,203.71,34.71Z"/><path class="cls-35" d="M204.46,36.36c.44-.15.21-1.1,1-.84C205.5,36.26,205.33,36.72,204.46,36.36Z"/><path class="cls-36" d="M237.29,22.93c.09-.56.34-.52.61-.14.15.2.17.5.53.38C237.92,23.67,237.56,23.48,237.29,22.93Z"/><path class="cls-4" d="M235.92,21.21c.14,0,.29-.12.39,0s-.06.41-.23.5-.68,0-.64.54h-.19a.81.81,0,0,0,0-.22C235,21.41,235.4,21.26,235.92,21.21Z"/><path class="cls-37" d="M210.42,25.68c0-.14,0-.29,0-.43,0-.37.12-.76.52-.63s.15.47,0,.73c0,.07,0,.22,0,.32Z"/><path class="cls-38" d="M197.49,14.27c0-1.13.67-.78,1.22-.89C198.42,13.92,197.86,13.8,197.49,14.27Z"/><path class="cls-39" d="M203.38,31.65c1-.43.71.48.9.88C203.94,32.28,203.29,32.34,203.38,31.65Z"/><path class="cls-40" d="M205.21,13.39h.47c0,.3.43.59.11.88s-.37-.14-.56-.22Z"/><path class="cls-2" d="M200.64,12.28c0-.79.41-.35.72-.28.16.06.41-.05.45.2s-.14.32-.34.28Z"/><path class="cls-41" d="M210.93,5.91c.11.39.61.54.59,1.1-.55,0-.67-.48-.85-.85Z"/><path class="cls-42" d="M207.47,128.8a.9.9,0,0,1,.6.68c-.46,0-.89.17-1.24-.27C207,129,207.29,129,207.47,128.8Z"/><path class="cls-3" d="M203.44,14.09c-.31-.16,0-.69-.49-.76a.47.47,0,0,1,.76.06C204,13.72,203.7,13.93,203.44,14.09Z"/><path class="cls-43" d="M232.05,21.83l.31,0c.26.35.09.77.18,1.15C232.29,22.62,231.74,22.41,232.05,21.83Z"/><path class="cls-2" d="M215.45,25a1,1,0,0,1-.45-1.12c.67-.38.4.21.48.45Z"/><path class="cls-10" d="M209.78,31.84l-.53.62c-.37-.69.13-.85.47-1.08A.29.29,0,0,1,209.78,31.84Z"/><path class="cls-44" d="M205.89,9.77h.47l-.23.68h-.48c0-.25-.29-.3-.44-.45C205.37,9.69,205.64,9.77,205.89,9.77Z"/><path class="cls-10" d="M199.45,12.75c0,.23-.16.34-.3.3a.73.73,0,0,1-.42-.29c-.07-.16.13-.26.27-.23A2.09,2.09,0,0,1,199.45,12.75Z"/><path class="cls-45" d="M203.83,36.67l0-.31a1.71,1.71,0,0,1,.2.27c.12.26.36.5.19.82a.34.34,0,0,1-.29.08C203.75,37.28,203.86,37,203.83,36.67Z"/><path class="cls-46" d="M204.76,12l0,.79a.58.58,0,0,1-.45-.89C204.44,11.63,204.58,12.06,204.76,12Z"/><path class="cls-47" d="M222.52,24.33c-.05-.34-.67-.09-.57-.42.17-.48.53-.18.82,0C222.71,24,222.81,24.29,222.52,24.33Z"/><path class="cls-48" d="M208.39,30.76c-.17.07-.18-.07-.2-.16s0-.37.16-.45.19.08.21.15A.38.38,0,0,1,208.39,30.76Z"/><path class="cls-2" d="M218.88,25.38c.35.07.63.23.64.6,0,.05-.16.17-.22.15C218.94,26,219,25.67,218.88,25.38Z"/><path class="cls-49" d="M211.13,127c0,.34.07.69-.33.87l-.14-.62Z"/><path class="cls-2" d="M207.47,128.8c.11.64-.35.41-.64.41C206.74,128.61,207.16,128.79,207.47,128.8Z"/><path class="cls-2" d="M205.21,10c.25.06.89-.27.44.45l-.23.23C205,10.56,205.27,10.22,205.21,10Z"/><path class="cls-50" d="M209.78,31.84l-.06-.46a.39.39,0,0,1,.68.1C210.42,31.84,210.09,31.88,209.78,31.84Z"/><path class="cls-51" d="M236.92,0c.28.21.46.39.28.69a.43.43,0,0,1-.28.14A.79.79,0,0,1,236.92,0Z"/><path class="cls-52" d="M218.64,23.44c0-.56.23-.67.65-.26C219.09,23.32,218.91,23.49,218.64,23.44Z"/><path class="cls-53" d="M212,139.73l-.94-.34a2.36,2.36,0,0,1,2.84-1.24c.69.32.45.93.11,1.44-1.12-1.21-1.31-1.22-1.75-.12C212.32,139.7,212.25,139.8,212,139.73Z"/><path class="cls-54" d="M216.77,139a1.8,1.8,0,0,0-.08.21c-.09.39-.12.88-.66.88-.25,0-.41-.29-.37-.59a.71.71,0,0,1,1-.66.13.13,0,0,1,.19,0C216.87,138.87,216.85,138.93,216.77,139Z"/><path class="cls-55" d="M208,136.34c.38.17.95.06.95.6,0,.28-.4.31-.66.26C207.6,137.1,208.13,136.63,208,136.34Z"/><path class="cls-56" d="M212,139.73l.26-.26c.28.27.85.18.9.7,0,.32-.34.28-.49.32C212,140.64,212.39,139.86,212,139.73Z"/><path class="cls-57" d="M218.82,140.27c-.14-.54-1-.43-1.09-1.19C218.51,139.12,218.75,139.6,218.82,140.27Z"/><path class="cls-58" d="M232.64,128.67c-.07.16-.12.39-.36.34s-.39-.32-.42-.58.12-.33.34-.33C232.59,128.11,232.49,128.49,232.64,128.67Z"/><path class="cls-59" d="M220.24,140.85a1.82,1.82,0,0,1-.55-1.21c.24.57.89.41,1.22.76C220.73,140.62,220.43,140.65,220.24,140.85Z"/><path class="cls-60" d="M221.62,139.27a.5.5,0,0,1-.36.61c-.07,0-.28-.23-.32-.39-.1-.32.13-.44.41-.52S221.55,139.16,221.62,139.27Z"/><path class="cls-16" d="M220.24,140.85c0-.49.33-.48.67-.45C221.13,140.88,221.1,140.9,220.24,140.85Z"/><path class="cls-39" d="M229.22,129.92c-.25,0-.35-.11-.32-.27s.17-.34.36-.3a.42.42,0,0,1,.26.3C229.54,129.89,229.35,129.93,229.22,129.92Z"/><path class="cls-19" d="M206.47,137.68a.28.28,0,0,1-.33-.32c0-.14,0-.32.14-.35.32,0,.29.26.38.43S206.61,137.66,206.47,137.68Z"/><path class="cls-61" d="M221.76,137.66c-.07.06-.14.18-.21.18s-.18-.1-.26-.17,0-.19.08-.22A.32.32,0,0,1,221.76,137.66Z"/><path class="cls-62" d="M216.77,139l-.15-.16c.06-.15-.06-.39.18-.44a.31.31,0,0,1,.23.15C217.07,138.75,217.1,139,216.77,139Z"/><path class="cls-16" d="M202.5,36.65c-.75.67-1.29,1.68-2.53,1.58l0,0c.46-.82.74-1.58-.44-2.06-.06,0,0-.42.05-.72.82.81,1.59.18,2.3,0,.4-.11.43,0,.58.24A.72.72,0,0,1,202.5,36.65Z"/><path class="cls-63" d="M200,38.23a1.1,1.1,0,0,1-.76,1.36c-.33-.41.13-1.19-.59-1.41a.42.42,0,0,1-.25-.68c.11-.31,0-.81.44-.84s.29.52.4.78a1.27,1.27,0,0,0,.79.82Z"/><path class="cls-64" d="M196.76,17.56c.42-.19.92.16,1.37-.38.24-.28.48.48.73.75,0,.66-.74.47-.92.9-.39,0-.73.36-1.22.14.39-.47.74-.95.06-1.43Z"/><path class="cls-4" d="M238.22,20.29c.4,0,.37-.92,1-.45.3.23.92.21.8.76-.08.36-.62.35-.91.63s-.45-.31-.67-.51S238.1,20.52,238.22,20.29Z"/><path class="cls-65" d="M208.86,8.63a.43.43,0,0,1-.24-.41c.73-.22,1.48-.63,2,.28C210.11,9.64,209.46,8.78,208.86,8.63Z"/><path class="cls-66" d="M235.92,21.21c-.28.24-.7.36-.67.85l-.66-2a.32.32,0,0,1,.45,0C235.53,20.26,235.48,20.91,235.92,21.21Z"/><path class="cls-67" d="M203.42,15.26a.22.22,0,0,1,0,.16c-.15.43-.45,1-.86.56-.26-.25-1.37,0-.77-1l.25-.23.47.22a1.93,1.93,0,0,0,.47.13C203.12,15.14,203.3,15.09,203.42,15.26Z"/><path class="cls-68" d="M224,21.35c.71.29.55.9.48,1.42,0,.27-.37.22-.58.18s-.26-.28-.12-.48S223.72,21.72,224,21.35Z"/><path class="cls-69" d="M200.79,15.58c.52.48.52.48-.17,1.84C200.22,16.86,200.22,16.86,200.79,15.58Z"/><path class="cls-70" d="M197.94,18.83c0-.65.68-.53.92-.9l.49-.55C199.75,18.24,199.81,18.35,197.94,18.83Z"/><path class="cls-12" d="M194.33,21.38c-.4.6-.34,1.54-1.36,1.7-.05-.78.72-1.09.93-1.7A.29.29,0,0,1,194.33,21.38Z"/><path class="cls-37" d="M238.22,20.29l.21.43c-1.23.39-1.32.29-1-1.14C237.91,19.53,237.64,20.42,238.22,20.29Z"/><path class="cls-71" d="M223.15,22.52c-.61.14-.54-.35-.64-.69,0,0,0-.09.05-.09.39-.09.64-.77,1-.51s-.37.57-.34,1A1.24,1.24,0,0,1,223.15,22.52Z"/><path class="cls-12" d="M209.5,13c-1,.06-1.07-.38-.63-1.11a.18.18,0,0,1,0-.3C209.1,12,209.64,12.33,209.5,13Z"/><path class="cls-72" d="M210.9,11.56c-.33.21-.67.39-.89-.13-.07-.16-.1-.44.12-.47.39-.05.93-.35,1,.39C211.13,11.49,211,11.51,210.9,11.56Z"/><path class="cls-73" d="M202.5,36.65V35.7c.31.15.71-.51.86,0S203,36.49,202.5,36.65Z"/><path class="cls-74" d="M226.88,21c-.52.08-.94.49-1.35,0-.11-.14-.05-.25.12-.33A.86.86,0,0,1,226.88,21Z"/><path class="cls-48" d="M208.1,15.24c.54.09,1-.35,1.38.11.11.13,0,.26-.2.32C208.88,15.8,208.44,16.11,208.1,15.24Z"/><path class="cls-75" d="M209.22,25.54c0,.49.56.81.2,1.26-.13.17-.79-.52-.75-.52C209.2,26.31,208.9,25.82,209.22,25.54Z"/><path class="cls-26" d="M213.17,11.85c.36,0,.34-.79.85-.45.14.1.37.28.25.44C214,12.23,213.58,12,213.17,11.85Z"/><path class="cls-76" d="M194.33,21.38h-.43c.1-.17-.4-.25-.07-.46s.37-.5.72-.24C195.45,21.22,194.38,21.14,194.33,21.38Z"/><path class="cls-44" d="M209.78,9.5c-.08.52.21.92-.22,1.16a.31.31,0,0,1-.45-.17C209,10,209.4,9.89,209.78,9.5Z"/><path class="cls-77" d="M208.86,11.55v.3c-1.14-.11-.53-.84-.49-1.37C208.91,10.67,208.47,11.3,208.86,11.55Z"/><path class="cls-78" d="M211.39,13.46c-.57-.21-1-.28-1.19-1C210.78,12.61,211.22,12.74,211.39,13.46Z"/><path class="cls-79" d="M235,20h-.45c-.27-.23-.35-.47-.07-.75a.34.34,0,0,1,.49-.06C235.39,19.46,234.89,19.74,235,20Z"/><path class="cls-14" d="M204.31,14.8l.69,0c.33.78.06,1-.69.7A.6.6,0,0,0,204.31,14.8Z"/><path class="cls-80" d="M217.32,21.16c-.18.17-.31.37-.44.38-.33,0-.29-.28-.28-.48s.09-.41.33-.31S217.17,21,217.32,21.16Z"/><path class="cls-81" d="M205.75,17a1.88,1.88,0,0,1,0-1.1C206.17,16.45,206.17,16.45,205.75,17Z"/><path class="cls-82" d="M212.19,8.85c-.15,0-.33,0-.31-.22s.13-.46.41-.44c.11,0,.3.16.31.26C212.63,8.71,212.41,8.8,212.19,8.85Z"/><path class="cls-83" d="M198.63,20.71c0,.29.07.62-.42.8v-1C198.49,20.31,198.67,20.32,198.63,20.71Z"/><path class="cls-82" d="M213.51,8.1c.22.09.12.3.12.46s-.09.31-.27.27-.37-.14-.28-.38A.49.49,0,0,1,213.51,8.1Z"/><path class="cls-84" d="M198.37,37.5l.25.68c-.22,0-.42.48-.63.11S198.07,37.68,198.37,37.5Z"/><path class="cls-85" d="M212.28,24.83l0-.3.11-.53c.11.07.27.13.31.23C212.82,24.59,212.69,24.81,212.28,24.83Z"/><path class="cls-86" d="M204.24,16.92c-.28-.15-.64-.26-.59-.7C204.23,16.11,204.08,16.65,204.24,16.92Z"/><path class="cls-87" d="M195.22,20.52c.22-.43.15-.83.58-.94C196,20,195.87,20.3,195.22,20.52Z"/><path class="cls-88" d="M206.8,15.92c.22,0,.29.18.39.32a1.42,1.42,0,0,1-.45.27c-.07,0-.28-.16-.27-.25A.34.34,0,0,1,206.8,15.92Z"/><path class="cls-89" d="M209.91,24.82c.16.44.08.68-.27.81C209.47,25.29,209.48,25,209.91,24.82Z"/><path class="cls-90" d="M225.26,6.1c-.17,0-.23-.11-.24-.27s0-.32.16-.35.26.1.28.26A.3.3,0,0,1,225.26,6.1Z"/><path class="cls-91" d="M194.55,20.68l-.72.24a.57.57,0,0,1,.41-.66C194.56,20.19,194.5,20.5,194.55,20.68Z"/><path class="cls-92" d="M227.76,19.44c0,.15,0,.37-.23.29-.09,0-.22-.19-.2-.22a2,2,0,0,1,.28-.3Z"/><path class="cls-93" d="M210.9,11.56l.26-.21c.22,0,.52.09.36.34S211.12,11.59,210.9,11.56Z"/><path class="cls-94" d="M198.63,20.71a.41.41,0,0,0-.42-.24c0-.21.11-.48.37-.36S199,20.48,198.63,20.71Z"/><path class="cls-2" d="M214.32,26.39c-.23,0-.46.06-.42-.28a.39.39,0,0,1,.33-.36l.1.64Z"/><path class="cls-70" d="M203,15.43c-.32,0-.51-.08-.52-.42s0-.56.46-.47A.87.87,0,0,1,203,15.43Z"/><path class="cls-95" d="M203,15.43l-.06-.89.4.2c0,.17,0,.35.07.52Z"/></g></g></g></svg>