<svg xmlns="http://www.w3.org/2000/svg" version="1.1" xmlns:xlink="http://www.w3.org/1999/xlink" width="1000" height="1000"><g clip-path="url(#SvgjsClipPath1573)"><rect width="1000" height="1000" fill="#ffffff"></rect><g transform="matrix(4.805711931896197,0,0,4.805711931896197,192.2902650006865,149.99999999999994)"><svg xmlns="http://www.w3.org/2000/svg" viewBox="0 0 128.06 145.66" width="128.06" height="145.66"><defs><style>.cls-1{fill:#a62023;}.cls-2{fill:#f3e3e3;}.cls-3{fill:#f4e5e5;}.cls-4{fill:#f8f0ef;}.cls-5{fill:#f6e9ea;}.cls-6{fill:#efd7d8;}.cls-7{fill:#f4e5e6;}.cls-8{fill:#a62024;}.cls-9{fill:#edd3d3;}.cls-10{fill:#e1b2b3;}.cls-11{fill:#f0dbdb;}.cls-12{fill:#f7ecec;}.cls-13{fill:#efd8d8;}.cls-14{fill:#f5e9e9;}.cls-15{fill:#f5e8e8;}.cls-16{fill:#edd0d0;}.cls-17{fill:#b95c4f;}.cls-18{fill:#deacad;}.cls-19{fill:#efd5d5;}.cls-20{fill:#deafae;}.cls-21{fill:#dca8a9;}.cls-22{fill:#f2dfdf;}.cls-23{fill:#ab302d;}.cls-24{fill:#a72325;}.cls-25{fill:#e0b3b3;}.cls-26{fill:#ab302e;}.cls-27{fill:#e0b2b2;}.cls-28{fill:#dca5a8;}.cls-29{fill:#ab2f2f;}.cls-30{fill:#a92a2a;}.cls-31{fill:#e0b4b4;}.cls-32{fill:#a62125;}.cls-33{fill:#a82727;}.cls-34{fill:#efd9da;}.cls-35{fill:#e6c1c1;}.cls-36{fill:#efd9d9;}.cls-37{fill:#f0dada;}.cls-38{fill:#e2b6b7;}.cls-39{fill:#aa2d2c;}.cls-40{fill:#e1b4b5;}.cls-41{fill:#e4bbbc;}.cls-42{fill:#f0dede;}.cls-43{fill:#f1dede;}.cls-44{fill:#ac3230;}.cls-45{fill:#ab312d;}.cls-46{fill:#a62124;}.cls-47{fill:#e4bdbd;}.cls-48{fill:#deadae;}.cls-49{fill:#a82628;}.cls-50{fill:#ab2e2d;}.cls-51{fill:#ac3030;}.cls-52{fill:#f2e1e1;}.cls-53{fill:#f3e5e4;}.cls-54{fill:#f7eded;}.cls-55{fill:#eacbcb;}.cls-56{fill:#ecd0d0;}.cls-57{fill:#f0dedd;}.cls-58{fill:#dba6a7;}.cls-59{fill:#eacaca;}.cls-60{fill:#e3baba;}.cls-61{fill:#d18e8f;}.cls-62{fill:#f3dfe0;}.cls-63{fill:#ecd3d2;}.cls-64{fill:#edd2d2;}.cls-65{fill:#f4e3e4;}.cls-66{fill:#e1b4b4;}.cls-67{fill:#eac9c9;}.cls-68{fill:#eed3d3;}.cls-69{fill:#eacdcc;}.cls-70{fill:#e1b3b4;}.cls-71{fill:#f3e2e2;}.cls-72{fill:#e9c8c8;}.cls-73{fill:#e9caca;}.cls-74{fill:#e9c8c9;}.cls-75{fill:#e7c2c3;}.cls-76{fill:#d39496;}.cls-77{fill:#eed5d5;}.cls-78{fill:#d79a9c;}.cls-79{fill:#f0dddd;}.cls-80{fill:#edd5d4;}.cls-81{fill:#e8c7c7;}.cls-82{fill:#f5e7e7;}.cls-83{fill:#e1b5b6;}.cls-84{fill:#e7c4c5;}.cls-85{fill:#f1dddd;}.cls-86{fill:#eed5d6;}.cls-87{fill:#edd3d2;}.cls-88{fill:#e7c3c3;}.cls-89{fill:#e6c1c2;}.cls-90{fill:#f4e6e6;}.cls-91{fill:#e0b1b1;}.cls-92{fill:#ddaaab;}.cls-93{fill:#e5bdbd;}.cls-94{fill:#c77576;}</style><clipPath id="SvgjsClipPath1573"><rect width="1000" height="1000" x="0" y="0" rx="200" ry="200"></rect></clipPath></defs><g id="Layer_2" data-name="Layer 2"><g id="Layer_1-2" data-name="Layer 1"><g id="_9yf0vJ.tif" data-name="9yf0vJ.tif"><path class="cls-1" d="M128.06,71c-1.33,1.4-1.11,3.25-1.33,4.94-.15,1.1-.16,2.14-1,3-.71.7-.16,1.78-.55,2.61-.81,1.69-.42,3.81-2,5.26a2.22,2.22,0,0,0-.33,2.15c.25,1.23,0,1.46-1.27,1.63-.46.07-.31.38-.21.58a2.19,2.19,0,0,1,0,1.63c-.44,1.54-.69,3.14-1.27,4.62a4.9,4.9,0,0,1-1.59,2.47,2.86,2.86,0,0,0-1.33,2.36c0,.66-.17,1.22-1.07.88-.32-.12-.5.06-.5.4a1.51,1.51,0,0,1-.39,1,2.88,2.88,0,0,0-.79,2.91c.23,1.08-1.1,1.71-1.28,2.76-1.28-.14-1.09.87-1.36,1.61-.34,1-.5-.36-.89-.07a2.53,2.53,0,0,1-.84,2.89,1.11,1.11,0,0,0-.36.81.74.74,0,0,1-.57.76c-1,.08-1.39.74-1.91,1.48a14.93,14.93,0,0,1-4.25,4.09c-1.06.67-2,1.65-3.39,1.58a.37.37,0,0,0-.25.19c-.7,1.71-2.38,2.43-3.67,3.49a12.61,12.61,0,0,1-3.88,2.07,50.21,50.21,0,0,0-4.91,2.49A50,50,0,0,1,79.27,135c-2.39.67-4.6,2-7.18,2.08a7.39,7.39,0,0,0-1.86.48c-.64.19-1.26.49-1.93,0-.39-.28-.78.13-1.18.16a53.42,53.42,0,0,0-7.37,1.21,48,48,0,0,0-5.12,1,15.38,15.38,0,0,1-2,.14,5,5,0,0,0-2.07.36c-.48.27-1.1-.11-1.61-.44s-.88-.79-1.2.11a.34.34,0,0,1-.48.17c-1-.4-1.64.21-2.34.7a.35.35,0,0,1-.38.09c-.93-.31-1.82-.91-2.89-.4-.18.09-.51-.07-.74-.18-.42-.19-.77-.79-1.21.1-.1.21-1.15.19-1.44.06-1.16-.53-2.91-.09-3.24-2-.76,1-1.13,1-2.25,0,.08.82.18,1.55.24,2.28a1.52,1.52,0,0,0,1.65,1.56,3.69,3.69,0,0,1,2.9.85.63.63,0,0,0,.6.21c2.14-.43,4.3.05,6.44-.14a1.82,1.82,0,0,1,1.36.48A1.74,1.74,0,0,0,48,144c.13-.07.27-.19.4-.18.47,0,1.16-.29,1.3.32s-.5.74-1.06.85a22,22,0,0,1-5.32.12c-1.76-.1-3.4.66-5.14.5s-3.58-.24-5.15-1.26c-.39-.26-.81-.55-1.28,0-.25.31-.65,0-.94-.11a33.91,33.91,0,0,0-6.13-2,1.89,1.89,0,0,1-1.29-.78c-.28-.42-.87-.34-1.34-.41a10.1,10.1,0,0,1-6-3.13c-1-1-2.52-1.4-3.32-2.59-.63-.94-1.72-.54-2.46-1.12S8.79,133.11,8,132.58a11.68,11.68,0,0,1-3.1-3.31,11.63,11.63,0,0,0-1.57-1.78,7.79,7.79,0,0,1-2.64-4A5.33,5.33,0,0,0,0,122.27,4.12,4.12,0,0,1,2.8,124a1.59,1.59,0,0,0,1.42.75c.48,0,.87.37,1.21.73s.66.91,1.3.4c.08-.07.27,0,.42,0-.06,1.36,1.92,1,1.93,2.33,0,.09,0,.19.14.24a10.6,10.6,0,0,1,3.43,2,3.74,3.74,0,0,0,2.47,1.38c.65,0,.73.86,1.26,1.12s.53.95,1.12,1.11c1,.51,2.13.77,2.85,1.72.34-.11.26-.47.28-.79a9.22,9.22,0,0,0,1.87,1.55,1.24,1.24,0,0,0,.88.1,2,2,0,0,1,1.85.59c.76.85,1.27.59,1.81-.16.27-.46.53-.22.81,0a3.09,3.09,0,0,0,1.84.86c-.8-.64-1.71-.66-2.18-1.33-1.55-.92-2.59-2.61-4.52-3-.16,0-.44-.21-.43-.3.1-.91-1-1.18-.94-2-.45,0-.18.91-.82.57a1.74,1.74,0,0,1-1.06-1.32c0-.28.14-.34.44-.22,1.26.49,1.48.34,1.58-1,.09-.14.47,0,.36-.22s-.52-.11-.79,0a.93.93,0,0,1-1.08-.12,1.51,1.51,0,0,1-.21-.5c1,.21.62-1.3,1.52-1.18.16-.1,0,.46.27.13.09-.11.11-.26.2-.38a2.76,2.76,0,0,1,3.21,2,1.5,1.5,0,0,0,1,1,20,20,0,0,1,3.15,1.2c.21.12.66.22.73.12,1-1.21,1.63.06,2.34.34.5.2.82.24,1.19-.11.4-.17.78.31,1.19.06.22-.65.63-.44,1-.19a.86.86,0,0,0,1.12-.19c.3-.29,0-.79-.21-.88-1.38-.76-.46-2-.81-3,.41.6.38,1.67,1.61,1.12.83-.37.85-.32.44-1.51.56.62.87.44,1.55.24,1.52-.48,2.9-1.91,4.73-1.1a1.34,1.34,0,0,0,1.09-.2,3.11,3.11,0,0,1,2.58-.24,1.07,1.07,0,0,0,1.22-.4,4.24,4.24,0,0,1,3.1-1.38c2.72-.28,5.47-.39,8.19-.74,1.69-.21,3.34-.75,5-1.1a66,66,0,0,0,14.51-5,15.79,15.79,0,0,0,5.67-4c1.51-1.84,3.24-3.44,4.84-5.18,1.87-2,3-4.62,5-6.54,1.49-1.39,1.74-3.48,2.1-5.41a23.6,23.6,0,0,1,2-5,1.41,1.41,0,0,0,.07-1.38,3.42,3.42,0,0,1-.16-2.76,17.91,17.91,0,0,0,.67-9.84,9.13,9.13,0,0,1-.16-4.26,2.2,2.2,0,0,0,0-1,14.26,14.26,0,0,1,0-5.33c.27-1.86.46-3.88-1.1-5.52-1.1-1.16-1.28-2.83-1.93-4.24a6.55,6.55,0,0,0-1.7-2.37c-.73-.63-1-1.91-1.24-2.95a4.21,4.21,0,0,0-1-1.83A20.36,20.36,0,0,1,90,45a5.56,5.56,0,0,0-1.83-2.68c-1.28-.8-2-2.2-3.11-3.28a8.15,8.15,0,0,0-1.76-1.4A13.7,13.7,0,0,1,78.14,33c-1.7-2.77-4.34-3.86-7.21-4.73-2.14-.65-4.23-1.41-6.35-2.11-.08-.56.36-.81.67-1.12q10-10,20.07-20.09a3.28,3.28,0,0,1,1.1-.79,1.16,1.16,0,0,1,1.08.51,5.13,5.13,0,0,0,2.89,1.88,2.84,2.84,0,0,1,2.15,2.85,1.57,1.57,0,0,0,.86,1.51,1.21,1.21,0,0,1,.77,1.43,1.2,1.2,0,0,0,.69,1.21c.44.22.59-.32.85-.55a2.21,2.21,0,0,1,2.64-.17,2.29,2.29,0,0,1,.94.8c.85,1.4,2.51,1.87,3.46,3.15a1.56,1.56,0,0,0,1.54.56,3.07,3.07,0,0,1,2.56,1c1.67,1.53,2.71,3.55,4.15,5.25a.74.74,0,0,1,.21.51c-.27,1.37.62,2.4.92,3.6.57,2.36,2.52,3.63,3.78,5.44,1.58.19,1.75,1.52,2.15,2.67a3.87,3.87,0,0,0,.69,1,9.06,9.06,0,0,1,1.92,3.7,22.47,22.47,0,0,0,1.87,4.29,48.09,48.09,0,0,1,3,9.38c.27,1.27.83,2.55.21,3.89a.45.45,0,0,0,.15.51,3.84,3.84,0,0,1,1,2.92c.07,1.71.8,3.37.35,5.15-.15.55.35,1.17.79,1.64Z"></path><path class="cls-1" d="M86.42,4.12c-.71.73-1.41,1.48-2.13,2.2L65.42,25.2c-.29.29-.56.61-.84.92l-1.79-.44c-.45-.66-1.39-.22-1.86-.84-.91-.54-1.75-1.37-2.93-.61-.26.17-.37.05-.48-.22C57,22.85,56,22.92,55,23.07a3.24,3.24,0,0,1-1.76.07,27.74,27.74,0,0,1-3.33-.74c-.65-.29-.33.57-.62.77-.48.4-.71-.39-1.13-.24s-.65-.32-1.12,0-.42-.49-.74-.66c-.33-.46.48-.61.27-1a8.66,8.66,0,0,1-.79-1.21c-.06-.11,0-.34-.15-.3s0,.21,0,.34A3,3,0,0,1,46.21,22a.24.24,0,0,1-.06.28c-.24,0-.2.64-.65.29s-.61-.54-.42-.9c.56-1.05-.06-1-.85-1L44.71,22c-.54.22-.37-.59-.78-.52-.65.35,1.36,1.54-.5,1.49a4,4,0,0,1-.33-1.09c-.26-1.18-.76-1.55-2.07-1.57.14.55.94.84.6,1.56a.2.2,0,0,1-.28,0l-.43,0c-.93-.18-.58.76-.94,1.08-.65.07-.23-.74-.75-.86S39,25,37.66,22.28c-.08,1.51-.78,1.53-1.76,1.16-.47-.18-1-.19-.78.67.08.3,0,.78-.55.67-.64-.57-.51-1.38-.68-2.09a1.55,1.55,0,0,1,.11-.87c-.26-.11-.38.15-.57.19-1.45.37-1.45.38-1,1.82.11.32.11.67.24,1-.16.28-1.77.84-1.89.63a1.32,1.32,0,0,1,.3-1.56c.09-.63-.51-.7-.84-1s-.72-.34-1-.69c0,.45.34.79.29,1.21.11,1.2-.65,1.21-1.51,1.09.06-.34.79-.05.55-.63-.29-.37-.55-.89-1.07-.23-.09.23-.15.48-.48.45s-.42-.47-.67-.6c-.53-.27-1.05-.31-1,.56-.08.51.5.87.3,1.4h0c-1,.32-1-.51-1.33-1a4.73,4.73,0,0,1,.32,1.27c0,.35-.05.73-.57.44-.05-.65-.57-.36-.89-.46a.66.66,0,0,1-.2-.74.38.38,0,0,1,.12-.18l.16-.14c-.07-.09-.09,0-.15,0-.49.06-.5.61-.85.82-.08.19-.25.19-.42.19-.19-.36-.37-.28-.54,0-.38.44.08,1.44-1,1.45-.21,0,0,.29,0,.46,0,.4.24.8,0,1.28-.56-.63-.3-2-1.67-1.79-.56.1-.92.44-.72,1.07-.59.09-.67-.5-1.12-.51.12.74-.41,1.44,0,2.2.06.13.11.41-.24.3-.16-.05-.43.21-.45-.21s-.22-.66-.56-.51a1.13,1.13,0,0,0-.7,1c0,.42.27.54.68.49s.58.25.26.45-.24.5-.1.82c.32.71.06.76-.5.38a1.86,1.86,0,0,0-.89-.88c-.13.11-.41.27-.39.33.42,1.33.07,1.59-1.13.68.09,1.46,1.2,2.06,2,2.69.59.47,1.14-.39,1.52-1,.45.37.38.75.05,1.14s-.5.76-1,.84c-.2-.18-.4-.31-.59,0a.19.19,0,0,1,0,.31l-.39-.1c-.06.28-.24.62-.15.84.46,1.15-.85.38-.94.9s-.14,1.27-1.1.9c-.5-.19-1.68.75-1.72,1.3s.09,1.17-.47,1.05-1.61.75-2-.45a.38.38,0,0,0-.51-.3c-1,.24-1.17-.35-1.11-1.14a2.35,2.35,0,0,0-.91-2,2.13,2.13,0,0,1-.79-2.29.69.69,0,0,0,.05-.44c-.87-2.17.49-3.65,1.59-5.22A7.76,7.76,0,0,0,7.34,28c.7-1.8,2-3.32,2.59-5.16.12-.34.45-.65.19-1.12-.56.21-.69,1.64-1.59.8-.28-.27-1.55-.94-.18-1.75a7.19,7.19,0,0,0-2.28,2.17c-.32-.22-.12-.54-.31-.83a4.1,4.1,0,0,1-1.31,1.31c-.26.22-.2.93-.85.58a1,1,0,0,1-.43-1.29c.46-1.45.55-3,1.1-4.44.29-.75.45-1.57.68-2.35s.48-1.18,1.34-1.11c-.4.65-.08,1.33-.21,2s-.4,1.36-.62,2.19a1.89,1.89,0,0,1,1.11-.25c.13-.6-1.07-1-.22-1.65.67-.49.72.77,1.33.48.36.15.63.36.59.81s.32.24.54.25a3.75,3.75,0,0,0,1.12-.4c.07,0,.31-.16,0-.18a1.48,1.48,0,0,1-.21,0c-.56-.7-1.42-.06-2-.45-.27-.52-.24-.86.48-.78A4.91,4.91,0,0,1,9,16.46c.56-.11.57-.12.58-.53,1,.16,1.6-.81,2.51-1,.38-.08-.06-.4-.1-.61.48-.46.54-.42.86.5s.61,1.19,1.4.58c.33-.18.68,0,1-.11s.48-.18.55-.48A.84.84,0,0,1,16,14.6c.14-.06.28-.1.41-.17.32-.16.89,0,1-.4s-.6-.42-.87-.69c-.31-.47-.09-1-.1-1.5s-.33-.05-.4-.22a.61.61,0,0,1,.58-.53c.44-.07.58.28.73.57.47.91,1.61,1.29,1.86,2.49-.2-1,.79-.76,1-1.22a2.68,2.68,0,0,0-.58-1.24c-.25-.32-.27-.75-.54-1.06s-.42-.46-.28-.81a2.18,2.18,0,0,0,1-1.25.59.59,0,0,1,.32-.06c.28,0,.51.39.82.13a.19.19,0,0,0,0-.3c-.3-.32-.61-.14-.93,0-.17.07-.36.1-.53.17-.75,0-.85-.18-.49-.75.59-.07.57-1,1.25-.91.78.29.54-.41.69-.72.26-.53.46,0,.68,0s.17.19.25.06-.06-.2,0-.31a13.09,13.09,0,0,0,3.32-2.28c.65-.76,1.82-.56,2.69-.94.55-.23,1.43-.11,1.33-1.16,0-.31.36-.2.53-.17,1.55.22,3-.63,4.51-.4C36.52,1.33,38.7.34,41,.63a4.74,4.74,0,0,1,1.48.46,5.67,5.67,0,0,0,2.31.12c.59,0,.76.52,1.31.56-.1-.72.67-.93.87-1.51.62.14,0,.78.45,1.08A1.83,1.83,0,0,0,49.75.88c.34-.53.65-.53.94-.21.45.49,1.52.14,1.53.89s-.94.8-1.32,1.24-1.58,1-1.07,2.08c.12.27.34.75.56.41.87-1.31,2-.54,3-.52a1.76,1.76,0,0,0,.93.42c.65,0,1-.44,1.48-.7,1-.55,1.84-1.61,3.2-1.43a6.72,6.72,0,0,0,1.66-.16c.07,0,.17-.14.19-.22.06-.23-.52-.42-.11-.63s.38.36.6.51a4,4,0,0,0,2.72.79c.85-.12.94-1.05,1.41-1.58C66.48.66,66.91.46,68.34,1a5.81,5.81,0,0,1,2,.86c.1.09.33.19.39.14,1-.86,1.89.26,2.63.17,2.36-.31,4.53,1.13,7,.42a3,3,0,0,1,3.42,1,1.49,1.49,0,0,0,1.71.59A2,2,0,0,1,86.42,4.12Z"></path><path class="cls-2" d="M20.4,13c.17.59.17.59-1,.49-.21.36.89.5.17.9a.66.66,0,0,1-1-.48c-.31-1.19-1.55-1.69-2-2.78a.44.44,0,0,0-.25-.42c0-.21.08-.31.24-.38a.87.87,0,0,1,.48,0c.36.15.69.25,1-.11s.41-.57.83-.39c-.09.37.15.54.41.7.08.48,0,1,.53,1.33A1.3,1.3,0,0,0,20.4,13Z"></path><path class="cls-3" d="M34.05,22.52c.49.68,0,1.58.52,2.26-.6,0-.58-.63-.9-.9-.29,0-.24.25-.25.45l-.71.48c-.64-.68-.69-1.62-1.08-2.41.46.15.17-1.32,1-.45.3.32.52-.21.8-.12C33.92,21.78,33.72,22.4,34.05,22.52Z"></path><path class="cls-4" d="M18.87,9.78a1.16,1.16,0,0,0-.66.59c-.36.72-.75.59-1.18.08-.26-.26-.07-.52,0-.79,0-.61.42-1,.68-1.48L19,7.75c-.06.2-.23.46,0,.6s.38-.08.58-.13a.43.43,0,0,1,.24.41C20.22,9.6,19.42,9.59,18.87,9.78Z"></path><path class="cls-5" d="M41.62,21.82a1.3,1.3,0,0,0-.79-1.1c-.31-.12-.51-.2-.35-.52s.38-.51.74-.37a12.69,12.69,0,0,1,2,.91c.17.12,0,.7,0,1.07a.2.2,0,0,1-.3,0,.62.62,0,0,0-.68,0A.43.43,0,0,1,41.62,21.82Z"></path><path class="cls-6" d="M6.35,17.06a.64.64,0,0,0,.22.88,1.2,1.2,0,0,1,.35,1.36c-.69-1.06-1.09-.19-1.72.3a4,4,0,0,1,.88-2.83Z"></path><path class="cls-7" d="M26.59,25.46l.22.23a3,3,0,0,0,1.69.47c.15.28.34.55.14.89s-.62.21-.94.23c-.45-.36-.9.32-1.34,0V25.7Q26.26,25.37,26.59,25.46Z"></path><path class="cls-4" d="M27.51,136.52c.74.1,1.26.76,2.08.73.37,0,.47.43.38.79-.16.61-.48.11-.68.06A2.72,2.72,0,0,1,27.54,137c-.25-.38-.34,0-.5,0A.42.42,0,0,1,27.51,136.52Z"></path><path class="cls-8" d="M22.55,28c.3-.05.35.06.41.21a3.45,3.45,0,0,0,.92,1.25.51.51,0,0,1,0,.87c-.41.31-.68.11-.85-.32s-.22-.64-.62-.74c-.22-.05-.46-.21-.34-.48S22.94,28.63,22.55,28Z"></path><path class="cls-9" d="M24.09,26.14c.35.06.49,0,.38-.43-.22-.73-.41-1.46-.64-2.28,1.05.39.48,2.06,1.84,2-.18.29-.14.69-.44.93l-.07-.07s0,0,.06.07C24.76,26.68,24.32,26.89,24.09,26.14Z"></path><path class="cls-10" d="M29.55,23.43c-.57-.44-.45-1.19-.72-1.82.73.52,1.44,1.08,2.2,1.55.34.21.33.45.3.76,0,0,0,.06-.06.06l-.15-.1-.93-.7a.59.59,0,0,0-.65.26Z"></path><path class="cls-11" d="M16.55,13.42c.3-.05.59-.48.89-.1a1.43,1.43,0,0,1,.38.91c-.06.42-.53.29-.85.34s-.72.13-1.08.21c-.19-.11-.39-.22-.16-.47a.45.45,0,0,0,.4-.25.53.53,0,0,0,.36-.52Z"></path><path class="cls-12" d="M25.25,24.1c-.06-.28-.84-.57-.19-.77.42-.12,1-.81,1.52-.08a6.42,6.42,0,0,1,.46.86l-.66.22c-.16,0-.13-.51-.46-.21C25.69,24.2,25.47,24.33,25.25,24.1Z"></path><path class="cls-13" d="M16,11.62c.8-.31.74.37.65.7s0,.74-.09,1.1l0,0a.3.3,0,0,1-.47,0l-.41-.65a.57.57,0,0,1,0-.79Z"></path><path class="cls-14" d="M12.67,15c-.3-.16-.13-.46-.21-.68-.13-.4-.32-.3-.5,0,.18-1,.85-1,1.62-.92.18.61-.26,1-.48,1.49C13,15,12.85,15.11,12.67,15Z"></path><path class="cls-15" d="M25.25,24.1l.65-.22c.35.29.19.79.45,1.12l.24.46-.24.24-.68-.23C25.73,25,24.75,24.76,25.25,24.1Z"></path><path class="cls-16" d="M11.54,12.28c-.39-.2-1.06.53-1.13-.1s.71-.59,1.2-.59c.24,0,1.06-.68.65.41C12,12.16,11.73,12.06,11.54,12.28Z"></path><path class="cls-17" d="M12.92,14.79a2.58,2.58,0,0,1,.66-1.39l.27-.07c.45.06.54.37.48.76a.78.78,0,0,0,0,.22.4.4,0,0,1,0,.41c-.15.18-.34.1-.51.09a1,1,0,0,0-.48.25A.43.43,0,0,1,12.92,14.79Z"></path><path class="cls-18" d="M9.55,15.93c-.08.24.53.78-.37.68-.27,0-.67.19-1,.17.19-.37.47-.71.15-1.22C8.76,15.74,9.07,16.16,9.55,15.93Z"></path><path class="cls-19" d="M20.89,6.12c.59.58.14,1-.29,1.26-.59.29-.65-.07-.4-.54C20.21,6.38,20.6,6.29,20.89,6.12Z"></path><path class="cls-20" d="M21.33,129c.91-.76,1-.72,1.39.51-.44.31-.62-.27-1-.28C21.62,129.16,21.48,129.08,21.33,129Z"></path><path class="cls-21" d="M17.5,134c-.91.16-1-.47-1.12-1.11C17.61,132.38,17.05,133.68,17.5,134Z"></path><path class="cls-22" d="M40,23a1.19,1.19,0,0,1,0-.33c.13-.4-.52-.79-.13-1.11s.58.5,1,.36C40.67,22.29,40.5,22.78,40,23Z"></path><path class="cls-2" d="M14.25,14.74l.1-.43h.42a2.11,2.11,0,0,1,.56.42c.25.29.17.53-.12.73-.33.53-.61-.1-.91-.05a.53.53,0,0,1-.17-.25A.48.48,0,0,1,14.25,14.74Z"></path><path class="cls-23" d="M17.7,8.18c.21.63-.68,1-.44,1.59a.33.33,0,0,1-.47,0C16.35,9.09,16.39,9,17.7,8.18Z"></path><path class="cls-24" d="M41.62,21.82h.65V23.2c-1-.08-.52-1-.92-1.36Z"></path><path class="cls-25" d="M23.18,24.83l0,.85-.92-.2c.06-.13.19-.3.15-.4-.48-1.15.45-.42.72-.55A.19.19,0,0,1,23.18,24.83Z"></path><path class="cls-26" d="M15.21,14.8a.41.41,0,0,1-.44-.48c.31-.66.63-.54,1,0l.16.47h0A.52.52,0,0,1,15.21,14.8Z"></path><path class="cls-27" d="M27.52,23.66c-.08-.41,0-.74.49-.64s.78.32.58.87Z"></path><path class="cls-28" d="M34.81,131.54c-.44.83-.8.13-1.19-.06C34.07,130.32,34.42,131.34,34.81,131.54Z"></path><path class="cls-29" d="M28.34,26.18c-.71.45-1.14,0-1.53-.49.64-.14,1.2.28,1.82.3C28.6,26.16,28.56,26.31,28.34,26.18Z"></path><path class="cls-30" d="M26.36,27.29c.44-.13.88-.73,1.34,0C27.25,27.31,26.81,28.45,26.36,27.29Z"></path><path class="cls-31" d="M54.35,5.19c-.66.44-.84.36-.93-.42C53.9,4.53,54.33,4.4,54.35,5.19Z"></path><path class="cls-32" d="M28.34,26.18l.29-.19c.16-.2.34-.44.61-.17s.13.47,0,.47c-.54,0-.19.68-.59.76Z"></path><path class="cls-33" d="M14.61,34.71c0-.58-.11-1.26.74-1.57A2.17,2.17,0,0,1,14.61,34.71Z"></path><path class="cls-34" d="M15.36,36.36c.44-.15.2-1.1,1-.84C16.4,36.26,16.23,36.72,15.36,36.36Z"></path><path class="cls-35" d="M48.19,22.93c.09-.56.34-.52.61-.14.14.2.16.5.52.38C48.82,23.67,48.46,23.48,48.19,22.93Z"></path><path class="cls-3" d="M46.82,21.21c.14,0,.29-.12.39,0s-.06.41-.23.5-.69,0-.65.54h-.18a.81.81,0,0,0,0-.22C45.92,21.41,46.3,21.26,46.82,21.21Z"></path><path class="cls-36" d="M21.32,25.68c0-.14,0-.29,0-.43,0-.37.12-.76.52-.63s.14.47,0,.73c0,.07,0,.22,0,.32Z"></path><path class="cls-37" d="M8.39,14.27c0-1.13.66-.78,1.22-.89C9.32,13.92,8.76,13.8,8.39,14.27Z"></path><path class="cls-38" d="M14.28,31.65c1-.43.7.48.89.88C14.83,32.28,14.19,32.34,14.28,31.65Z"></path><path class="cls-39" d="M16.11,13.39h.47c0,.3.43.59.11.88s-.37-.14-.56-.22Z"></path><path class="cls-1" d="M11.54,12.28c0-.79.41-.35.72-.28.16.06.41-.05.45.2s-.14.32-.35.28Z"></path><path class="cls-40" d="M21.83,5.91c.11.39.61.54.59,1.1-.55,0-.67-.48-.85-.85Z"></path><path class="cls-41" d="M18.36,128.8a.92.92,0,0,1,.61.68c-.46,0-.9.17-1.24-.27C17.91,129,18.19,129,18.36,128.8Z"></path><path class="cls-2" d="M14.33,14.09c-.3-.16,0-.69-.48-.76a.47.47,0,0,1,.76.06C14.85,13.72,14.6,13.93,14.33,14.09Z"></path><path class="cls-42" d="M43,21.83l.3,0c.27.35.09.77.18,1.15C43.19,22.62,42.64,22.41,43,21.83Z"></path><path class="cls-1" d="M26.35,25a1,1,0,0,1-.45-1.12c.67-.38.4.21.48.45Z"></path><path class="cls-9" d="M20.68,31.84l-.53.62c-.38-.69.12-.85.47-1.08A.29.29,0,0,1,20.68,31.84Z"></path><path class="cls-43" d="M16.79,9.77h.47l-.23.68h-.48c0-.25-.29-.3-.44-.45C16.27,9.69,16.54,9.77,16.79,9.77Z"></path><path class="cls-9" d="M10.35,12.75c0,.23-.16.34-.3.3a.73.73,0,0,1-.42-.29c-.07-.16.13-.26.27-.23A2.35,2.35,0,0,1,10.35,12.75Z"></path><path class="cls-44" d="M14.73,36.67l0-.31a2.69,2.69,0,0,1,.2.27c.12.26.36.5.19.82a.34.34,0,0,1-.29.08C14.65,37.28,14.76,37,14.73,36.67Z"></path><path class="cls-45" d="M15.66,12l0,.79a.58.58,0,0,1-.45-.89C15.34,11.63,15.48,12.06,15.66,12Z"></path><path class="cls-46" d="M33.42,24.33c-.06-.34-.68-.09-.57-.42.16-.48.53-.18.82,0C33.61,24,33.71,24.29,33.42,24.33Z"></path><path class="cls-47" d="M19.28,30.76c-.16.07-.17-.07-.19-.16s0-.37.16-.45c0,0,.19.08.21.15A.37.37,0,0,1,19.28,30.76Z"></path><path class="cls-1" d="M29.78,25.38c.35.07.63.23.64.6a.28.28,0,0,1-.23.15C29.84,26,29.9,25.67,29.78,25.38Z"></path><path class="cls-48" d="M22,127c0,.34.07.69-.33.87l-.14-.62Z"></path><path class="cls-1" d="M18.36,128.8c.11.64-.34.41-.63.41C17.64,128.61,18.06,128.79,18.36,128.8Z"></path><path class="cls-1" d="M16.11,10c.24.06.89-.27.44.45l-.23.23C15.86,10.56,16.17,10.22,16.11,10Z"></path><path class="cls-49" d="M20.68,31.84l-.06-.46a.38.38,0,0,1,.67.1C21.31,31.84,21,31.88,20.68,31.84Z"></path><path class="cls-50" d="M47.81,0c.29.21.47.39.28.69a.43.43,0,0,1-.27.14A.81.81,0,0,1,47.81,0Z"></path><path class="cls-51" d="M29.54,23.44c0-.56.23-.67.65-.26C30,23.32,29.81,23.49,29.54,23.44Z"></path><path class="cls-52" d="M22.91,139.73l-.94-.34a2.36,2.36,0,0,1,2.84-1.24c.68.32.45.93.11,1.44-1.12-1.21-1.31-1.22-1.75-.12C23.22,139.7,23.15,139.8,22.91,139.73Z"></path><path class="cls-53" d="M27.67,139a1.8,1.8,0,0,0-.08.21c-.09.39-.12.88-.66.88-.25,0-.42-.29-.37-.59a.7.7,0,0,1,1-.66c.08-.06.14-.06.2,0S27.75,138.93,27.67,139Z"></path><path class="cls-54" d="M18.9,136.34c.37.17,1,.06.94.6,0,.28-.39.31-.66.26C18.5,137.1,19,136.63,18.9,136.34Z"></path><path class="cls-55" d="M22.91,139.73l.26-.26c.27.27.85.18.89.7,0,.32-.33.28-.49.32C22.94,140.64,23.29,139.86,22.91,139.73Z"></path><path class="cls-56" d="M29.72,140.27c-.14-.54-1-.43-1.09-1.19C29.41,139.12,29.65,139.6,29.72,140.27Z"></path><path class="cls-57" d="M43.54,128.67c-.07.16-.12.39-.36.34s-.4-.32-.42-.58.11-.33.34-.33C43.49,128.11,43.39,128.49,43.54,128.67Z"></path><path class="cls-58" d="M31.14,140.85a1.82,1.82,0,0,1-.55-1.21c.24.57.89.41,1.22.76C31.63,140.62,31.33,140.65,31.14,140.85Z"></path><path class="cls-59" d="M32.52,139.27a.5.5,0,0,1-.36.61c-.07,0-.28-.23-.33-.39-.09-.32.14-.44.41-.52S32.45,139.16,32.52,139.27Z"></path><path class="cls-15" d="M31.14,140.85c0-.49.32-.48.67-.45C32,140.88,32,140.9,31.14,140.85Z"></path><path class="cls-38" d="M40.11,129.92c-.24,0-.35-.11-.31-.27a.33.33,0,0,1,.36-.3.44.44,0,0,1,.26.3C40.44,129.89,40.24,129.93,40.11,129.92Z"></path><path class="cls-18" d="M17.37,137.68a.3.3,0,0,1-.34-.32c0-.14,0-.32.15-.35s.29.26.38.43S17.51,137.66,17.37,137.68Z"></path><path class="cls-60" d="M32.65,137.66c-.06.06-.13.18-.2.18s-.18-.1-.26-.17,0-.19.08-.22A.31.31,0,0,1,32.65,137.66Z"></path><path class="cls-61" d="M27.67,139l-.15-.16c.05-.15-.06-.39.18-.44a.31.31,0,0,1,.23.15C28,138.75,28,139,27.67,139Z"></path><path class="cls-15" d="M13.4,36.65c-.75.67-1.29,1.68-2.53,1.58l0,0c.46-.82.73-1.58-.44-2.06-.06,0,0-.42,0-.72.82.81,1.59.18,2.3,0,.4-.11.43,0,.58.24A.72.72,0,0,1,13.4,36.65Z"></path><path class="cls-62" d="M10.87,38.23a1.1,1.1,0,0,1-.76,1.36c-.33-.41.13-1.19-.59-1.41a.42.42,0,0,1-.25-.68c.1-.31,0-.81.44-.84s.29.52.4.78a1.27,1.27,0,0,0,.79.82Z"></path><path class="cls-63" d="M7.66,17.56c.42-.19.92.16,1.37-.38.24-.28.48.48.73.75,0,.66-.74.47-.93.9-.38,0-.72.36-1.21.14.39-.47.74-.95.06-1.43Z"></path><path class="cls-3" d="M49.12,20.29c.4,0,.37-.92,1-.45.29.23.91.21.79.76-.07.36-.61.35-.9.63s-.45-.31-.68-.51S49,20.52,49.12,20.29Z"></path><path class="cls-64" d="M19.76,8.63a.43.43,0,0,1-.24-.41c.73-.22,1.48-.63,2,.28C21,9.64,20.36,8.78,19.76,8.63Z"></path><path class="cls-65" d="M46.82,21.21c-.28.24-.71.36-.67.85l-.66-2a.32.32,0,0,1,.45,0C46.43,20.26,46.38,20.91,46.82,21.21Z"></path><path class="cls-66" d="M14.32,15.26a.29.29,0,0,1,0,.16c-.15.43-.45,1-.86.56-.26-.25-1.37,0-.77-1l.25-.23.47.22a1.93,1.93,0,0,0,.47.13C14,15.14,14.2,15.09,14.32,15.26Z"></path><path class="cls-67" d="M34.94,21.35c.7.29.54.9.47,1.42,0,.27-.36.22-.57.18-.36-.07-.26-.28-.12-.48S34.62,21.72,34.94,21.35Z"></path><path class="cls-68" d="M11.69,15.58c.52.48.52.48-.17,1.84C11.12,16.86,11.12,16.86,11.69,15.58Z"></path><path class="cls-69" d="M8.83,18.83c0-.65.69-.53.93-.9l.49-.55C10.64,18.24,10.71,18.35,8.83,18.83Z"></path><path class="cls-11" d="M5.23,21.38c-.4.6-.34,1.54-1.36,1.7-.05-.78.72-1.09.93-1.7A.29.29,0,0,1,5.23,21.38Z"></path><path class="cls-36" d="M49.12,20.29l.2.43c-1.22.39-1.32.29-1-1.14C48.81,19.53,48.54,20.42,49.12,20.29Z"></path><path class="cls-70" d="M34.05,22.52c-.61.14-.54-.35-.65-.69,0,0,0-.09.06-.09.38-.09.64-.77,1-.51s-.37.57-.34,1C34.09,22.3,34.06,22.41,34.05,22.52Z"></path><path class="cls-11" d="M20.4,13c-1,.06-1.07-.38-.64-1.11a.19.19,0,0,1,0-.3C20,12,20.53,12.33,20.4,13Z"></path><path class="cls-71" d="M21.8,11.56c-.34.21-.68.39-.89-.13-.07-.16-.1-.44.12-.47.39-.05.93-.35,1,.39C22,11.49,21.9,11.51,21.8,11.56Z"></path><path class="cls-72" d="M13.4,36.65V35.7c.31.15.71-.51.86,0S13.89,36.49,13.4,36.65Z"></path><path class="cls-73" d="M37.78,21c-.52.08-.94.49-1.35,0-.11-.14,0-.25.12-.33A.86.86,0,0,1,37.78,21Z"></path><path class="cls-47" d="M19,15.24c.53.09,1-.35,1.38.11.11.13,0,.26-.2.32C19.78,15.8,19.34,16.11,19,15.24Z"></path><path class="cls-74" d="M20.12,25.54c0,.49.56.81.2,1.26-.13.17-.79-.52-.75-.52C20.1,26.31,19.79,25.82,20.12,25.54Z"></path><path class="cls-25" d="M24.07,11.85c.36,0,.34-.79.85-.45.14.1.37.28.25.44C24.88,12.23,24.48,12,24.07,11.85Z"></path><path class="cls-75" d="M5.23,21.38H4.8c.1-.17-.4-.25-.07-.46s.37-.5.72-.24C6.35,21.22,5.28,21.14,5.23,21.38Z"></path><path class="cls-43" d="M20.68,9.5c-.08.52.21.92-.22,1.16a.31.31,0,0,1-.45-.17C19.87,10,20.3,9.89,20.68,9.5Z"></path><path class="cls-76" d="M19.76,11.55v.3c-1.13-.11-.52-.84-.48-1.37C19.81,10.67,19.37,11.3,19.76,11.55Z"></path><path class="cls-77" d="M22.29,13.46c-.57-.21-1.05-.28-1.19-1C21.68,12.61,22.12,12.74,22.29,13.46Z"></path><path class="cls-78" d="M45.94,20h-.45c-.28-.23-.35-.47-.07-.75a.34.34,0,0,1,.49-.06C46.29,19.46,45.79,19.74,45.94,20Z"></path><path class="cls-13" d="M15.21,14.8l.68,0c.33.78.07,1-.68.7A.6.6,0,0,0,15.21,14.8Z"></path><path class="cls-79" d="M28.22,21.16c-.18.17-.31.37-.45.38-.32,0-.28-.28-.27-.48s.08-.41.33-.31S28.07,21,28.22,21.16Z"></path><path class="cls-80" d="M16.65,17a1.88,1.88,0,0,1,0-1.1C17.07,16.45,17.07,16.45,16.65,17Z"></path><path class="cls-81" d="M23.09,8.85c-.15,0-.33,0-.31-.22s.13-.46.41-.44c.11,0,.3.16.31.26C23.53,8.71,23.31,8.8,23.09,8.85Z"></path><path class="cls-82" d="M9.53,20.71c0,.29.07.62-.42.8v-1C9.39,20.31,9.57,20.32,9.53,20.71Z"></path><path class="cls-81" d="M24.41,8.1c.21.09.12.3.12.46s-.1.31-.27.27-.37-.14-.28-.38A.49.49,0,0,1,24.41,8.1Z"></path><path class="cls-83" d="M9.27,37.5l.25.68c-.22,0-.42.48-.63.11S9,37.68,9.27,37.5Z"></path><path class="cls-84" d="M23.18,24.83l0-.3.12-.53c.11.07.27.13.31.23C23.72,24.59,23.59,24.81,23.18,24.83Z"></path><path class="cls-85" d="M15.13,16.92c-.27-.15-.64-.26-.58-.7C15.13,16.11,15,16.65,15.13,16.92Z"></path><path class="cls-86" d="M6.12,20.52c.22-.43.15-.83.58-.94C6.89,20,6.76,20.3,6.12,20.52Z"></path><path class="cls-87" d="M17.7,15.92c.21,0,.29.18.39.32a1.42,1.42,0,0,1-.45.27c-.08,0-.28-.16-.28-.25A.36.36,0,0,1,17.7,15.92Z"></path><path class="cls-88" d="M20.8,24.82c.17.44.09.68-.27.81C20.37,25.29,20.37,25,20.8,24.82Z"></path><path class="cls-89" d="M36.16,6.1c-.18,0-.23-.11-.24-.27s0-.32.16-.35.26.1.28.26A.3.3,0,0,1,36.16,6.1Z"></path><path class="cls-90" d="M5.45,20.68l-.72.24a.57.57,0,0,1,.41-.66C5.46,20.19,5.4,20.5,5.45,20.68Z"></path><path class="cls-91" d="M38.66,19.44c0,.15,0,.37-.23.29-.09,0-.22-.19-.2-.22a1.56,1.56,0,0,1,.28-.3Z"></path><path class="cls-92" d="M21.8,11.56l.26-.21c.22,0,.52.09.36.34S22,11.59,21.8,11.56Z"></path><path class="cls-93" d="M9.53,20.71a.42.42,0,0,0-.42-.24c0-.21.11-.48.37-.36S9.88,20.48,9.53,20.71Z"></path><path class="cls-1" d="M25.22,26.39c-.23,0-.46.06-.43-.28a.4.4,0,0,1,.34-.36l.1.64Z"></path><path class="cls-69" d="M13.91,15.43c-.32,0-.51-.08-.52-.42s0-.56.46-.47A.89.89,0,0,1,13.91,15.43Z"></path><path class="cls-94" d="M13.91,15.43l-.06-.89.4.2c0,.17,0,.35.07.52Z"></path></g></g></g></svg></g></g></svg>