<svg xmlns="http://www.w3.org/2000/svg" version="1.1" xmlns:xlink="http://www.w3.org/1999/xlink" width="118" height="190"><svg xmlns="http://www.w3.org/2000/svg" viewBox="0 0 118 190"><defs><style>.cls-1{fill:#151516;}</style></defs><g id="SvgjsG1001" data-name="Layer 7"><path class="cls-1" d="M21.37,28.34C20.79,48.11,19.78,67.85,18,87.55c-1.77,19.88-4,39.72-5.94,59.58q-1.9,19.23-3.82,38.44c-.06.62,1.55.79,1.76.81a11.07,11.07,0,0,0,3.62-.44c1.47-.42,4.29-1.17,4.48-3,2.3-22.75,4.47-45.52,6.82-68.27,1.81-17.58,3.59-35.16,4.69-52.81.76-12,1.25-24.09,1.6-36.15.05-1.75-9.77-.41-9.86,2.64Z"></path><path class="cls-1" d="M10,51.91c7.75-11.82,18.74-21.17,30.6-28.11,1.59-.94,3.2-1.83,4.83-2.69l.49-.26c.57-.3-.53.27,0,0l1.16-.58q1.32-.66,2.67-1.29c1.68-.79,3.38-1.53,5.1-2.24l1.2-.5-.28.11c.23-.08.46-.18.69-.27l2.78-1c1.75-.63,3.5-1.22,5.27-1.78l.29-.09,1.24-.36c1-.28,1.9-.54,2.85-.79l2.49-.64,1.25-.29c.7-.17-1,.21-.25,0l.89-.19c1.78-.39,3.56-.73,5.36-1a13.29,13.29,0,0,1,2.5-.4s-.86.12-.33,0l.71-.1c.48-.07,1-.13,1.43-.18,1.76-.22,3.53-.4,5.31-.53.88-.07,1.75-.12,2.63-.17-.77,0,.27,0,.52,0l1.4,0c1.74,0,3.48,0,5.22,0a7.54,7.54,0,0,1,5,1.61,8,8,0,0,1,2.38,4.24c.94,3.92-.7,7.66-2.91,10.83-4.91,7-12,12.6-18.86,17.58C76.23,48.2,68.48,53.26,60.78,58.35q-24.16,16-49,30.87L5.55,93c-.3.18-1.34.8-1.19,1.36s1.36.59,1.71.6A14.32,14.32,0,0,0,13,93q26.15-15.53,51.59-32.2c8.37-5.5,16.72-11,24.93-16.78,7.51-5.27,14.77-10.94,20.67-18,2.71-3.25,5.21-7,5.39-11.41.15-3.44-1.5-7.26-4.75-8.78-2.25-1.06-4.81-1.13-7.25-1.18-1.79,0-3.58,0-5.36,0-4,.13-7.9.42-11.82.93a144.68,144.68,0,0,0-47.84,15c-13.49,7-26,16.51-35.22,28.68-1.07,1.42-2.1,2.87-3.07,4.36s3.55.85,3.9.78c1.77-.35,4.71-.93,5.8-2.59Z"></path></g></svg><style>@media (prefers-color-scheme: light) { :root { filter: none; } }
@media (prefers-color-scheme: dark) { :root { filter: none; } }
</style></svg>