<svg xmlns="http://www.w3.org/2000/svg" version="1.1" xmlns:xlink="http://www.w3.org/1999/xlink" width="33.1" height="57.4"><svg xmlns="http://www.w3.org/2000/svg" viewBox="0 0 33.1 57.4"><defs><style>.cls-1{fill:#071c75;}</style></defs><g id="SvgjsG1003" data-name="Layer 2"><g id="SvgjsG1002" data-name="Layer 1"><path class="cls-1" d="M0,57.4V0H18.21a16.3,16.3,0,0,1,8.44,2A11.86,11.86,0,0,1,31.5,7.58a22.52,22.52,0,0,1,1.6,8.93q0,6.16-2.1,9.64a11.58,11.58,0,0,1-5.7,4.93A22.26,22.26,0,0,1,17,32.53H11.69V57.4ZM11.69,24.31H15.8a7.76,7.76,0,0,0,3.94-.82,4.17,4.17,0,0,0,1.88-2.58,17.32,17.32,0,0,0,.49-4.54A20.8,20.8,0,0,0,21.72,12,4.51,4.51,0,0,0,20,9.21a7.22,7.22,0,0,0-4.25-1h-4Z"></path></g></g></svg><style>@media (prefers-color-scheme: light) { :root { filter: none; } }
@media (prefers-color-scheme: dark) { :root { filter: none; } }
</style></svg>