<svg xmlns="http://www.w3.org/2000/svg" viewBox="0 0 180.54 58.11"><defs><style>.cls-1{fill:#071c75;}.cls-2{fill:#030d2d;}</style></defs><g id="Layer_2" data-name="Layer 2"><g id="Layer_1-2" data-name="Layer 1"><path class="cls-1" d="M0,57.4V0H18.21a16.3,16.3,0,0,1,8.44,2A11.86,11.86,0,0,1,31.5,7.58a22.52,22.52,0,0,1,1.6,8.93q0,6.16-2.1,9.64a11.58,11.58,0,0,1-5.7,4.93A22.26,22.26,0,0,1,17,32.53H11.69V57.4ZM11.69,24.31H15.8a7.76,7.76,0,0,0,3.94-.82,4.17,4.17,0,0,0,1.88-2.58,17.32,17.32,0,0,0,.49-4.54A20.8,20.8,0,0,0,21.72,12,4.51,4.51,0,0,0,20,9.21a7.22,7.22,0,0,0-4.25-1h-4Z"/><path class="cls-1" d="M43.09,58.11a8.38,8.38,0,0,1-5-1.49,9.58,9.58,0,0,1-3.11-3.75,10.92,10.92,0,0,1-1.07-4.68,12.93,12.93,0,0,1,1.49-6.45,13.81,13.81,0,0,1,3.9-4.39,27,27,0,0,1,5.39-3.05q3-1.27,6-2.34V28.13a11.54,11.54,0,0,0-.21-2.34,2.8,2.8,0,0,0-.82-1.52,2.57,2.57,0,0,0-1.74-.53,2.78,2.78,0,0,0-1.73.46,2.7,2.7,0,0,0-.89,1.35,6.34,6.34,0,0,0-.28,1.95l-.28,2.83-10.07-.42q.36-7.23,3.79-10.71c2.3-2.31,5.75-3.47,10.39-3.47q6.23,0,9.21,3.44a13.32,13.32,0,0,1,3,9V47.27c0,1.6,0,3,.1,4.28s.17,2.37.28,3.34.23,1.8.32,2.51H52c-.15-1-.31-2.17-.5-3.4s-.33-2.06-.43-2.48a10.47,10.47,0,0,1-2.69,4.57A7.08,7.08,0,0,1,43.09,58.11ZM47,50.53a3.06,3.06,0,0,0,1.46-.36,5.11,5.11,0,0,0,1.24-.92,10,10,0,0,0,.92-1.06V36.92c-1,.62-1.91,1.22-2.77,1.81a11.54,11.54,0,0,0-2.19,2A7.85,7.85,0,0,0,44.22,43a7.94,7.94,0,0,0-.5,2.9,5.94,5.94,0,0,0,.85,3.37A2.77,2.77,0,0,0,47,50.53Z"/><path class="cls-1" d="M80.86,58.11a16.33,16.33,0,0,1-7.51-1.59,10.72,10.72,0,0,1-4.72-4.65A16.24,16.24,0,0,1,67,44.29V29.55A16.27,16.27,0,0,1,68.63,22a10.69,10.69,0,0,1,4.72-4.64,16.21,16.21,0,0,1,7.51-1.6,16.24,16.24,0,0,1,7.51,1.6A10.87,10.87,0,0,1,93.12,22a16,16,0,0,1,1.63,7.58V44.29a16,16,0,0,1-1.63,7.58,10.89,10.89,0,0,1-4.75,4.65A16.36,16.36,0,0,1,80.86,58.11Zm.07-7.23a2.71,2.71,0,0,0,2-.74,3.72,3.72,0,0,0,.92-2.06,18,18,0,0,0,.22-3V28.84a18,18,0,0,0-.22-3.05A3.85,3.85,0,0,0,83,23.74a2.62,2.62,0,0,0-2-.78,2.65,2.65,0,0,0-2.06.78,4.12,4.12,0,0,0-1,2.05,15.91,15.91,0,0,0-.25,3.05V45.07a15.9,15.9,0,0,0,.25,3,4,4,0,0,0,1,2.06A2.75,2.75,0,0,0,80.93,50.88Z"/><path class="cls-1" d="M101.76,57.4V0h10.7V57.4Z"/><path class="cls-1" d="M127,58.11a8.37,8.37,0,0,1-5-1.49,9.6,9.6,0,0,1-3.12-3.75,10.91,10.91,0,0,1-1.06-4.68,12.82,12.82,0,0,1,1.49-6.45,13.9,13.9,0,0,1,3.89-4.39,27,27,0,0,1,5.39-3.05c2-.85,4-1.63,5.95-2.34V28.13a11.54,11.54,0,0,0-.21-2.34,2.68,2.68,0,0,0-.82-1.52,2.56,2.56,0,0,0-1.73-.53,2.8,2.8,0,0,0-1.74.46,2.62,2.62,0,0,0-.88,1.35,6.33,6.33,0,0,0-.29,1.95l-.28,2.83-10.06-.42q.35-7.23,3.79-10.71t10.38-3.47q6.24,0,9.21,3.44a13.27,13.27,0,0,1,3,9V47.27c0,1.6,0,3,.11,4.28s.16,2.37.28,3.34.22,1.8.32,2.51h-9.64c-.14-1-.31-2.17-.5-3.4s-.33-2.06-.42-2.48a10.39,10.39,0,0,1-2.7,4.57A7.08,7.08,0,0,1,127,58.11Zm3.9-7.58a3,3,0,0,0,1.45-.36,4.93,4.93,0,0,0,1.24-.92,8.13,8.13,0,0,0,.92-1.06V36.92c-1,.62-1.91,1.22-2.76,1.81a11.61,11.61,0,0,0-2.2,2A8.06,8.06,0,0,0,128.12,43a7.94,7.94,0,0,0-.49,2.9,5.86,5.86,0,0,0,.85,3.37A2.76,2.76,0,0,0,130.89,50.53Z"/><path class="cls-2" d="M160.06,57.4V8.72H151.2V0h29.34V8.72h-8.72V57.4Z"/></g></g></svg>