<svg xmlns="http://www.w3.org/2000/svg" viewBox="0 0 282.52 217.58"><g id="Layer_2" data-name="Layer 2"><g id="Layer_1-2" data-name="Layer 1"><path d="M0,217.58V0H64Q81.16,0,92.21,7.39t16.47,21.49q5.41,14.1,5.41,34.25,0,25.24-7.29,38.54T87,120.07a73.18,73.18,0,0,1-28,5.11H42.11v92.4Zm42.11-126H56.22Q64,91.6,68,88.38t5.3-9.67a85.9,85.9,0,0,0,1.29-16.39,89,89,0,0,0-1.06-14.64,17.25,17.25,0,0,0-5.06-10.07q-4-3.77-12.46-3.76H42.11Z"/><path d="M211.71,217.58V35.73H183V0h99.51V35.73H254.06V217.58Z"/></g></g></svg>